<svg xmlns="http://www.w3.org/2000/svg" width="18" height="17.137" viewBox="0 0 18 17.137">
  <g id="Group_23111" data-name="Group 23111" transform="translate(0 -0.671)">
    <g id="Group_23121" data-name="Group 23121" transform="translate(0 0.671)">
      <path id="Path_65819" data-name="Path 65819" d="M9.4,22.673a8.1,8.1,0,0,0-8.061,8.136,8.262,8.262,0,0,0,.12,1.407L8.106,38.84A8.13,8.13,0,1,0,9.4,22.673Z" transform="translate(-1.288 -21.808)" fill="#746bf9"/>
      <circle id="Ellipse_810" data-name="Ellipse 810" cx="2.328" cy="2.328" r="2.328" transform="translate(8.179 0)" fill="#42c3fc"/>
      <path id="Path_65820" data-name="Path 65820" d="M260.375,7.227a.185.185,0,0,0-.057-.033.7.7,0,0,1-.492-.937.194.194,0,0,0-.074-.212.441.441,0,0,1-.112-.561.189.189,0,0,0,0-.139l-.426-1.179a.194.194,0,0,0-.1-.109.883.883,0,0,1-.389-1.071.188.188,0,0,0,0-.092,2.328,2.328,0,1,0,1.65,4.334Z" transform="translate(-248.708 -2.806)" fill="#1aa9e8"/>
      <path id="Path_65821" data-name="Path 65821" d="M276.029,33.063a1.858,1.858,0,0,0-1.614.937.236.236,0,0,0,0,.235,1.859,1.859,0,0,0,3.229,0,.237.237,0,0,0,0-.235A1.858,1.858,0,0,0,276.029,33.063Z" transform="translate(-265.494 -31.79)" fill="#e9efff"/>
      <path id="Path_65822" data-name="Path 65822" d="M276.423,35.293a.441.441,0,0,1-.112-.561.189.189,0,0,0,0-.139l-.426-1.179a.188.188,0,0,0-.052-.075,1.859,1.859,0,0,0-1.423.926.236.236,0,0,0,0,.235,1.857,1.857,0,0,0,2.076.878A.2.2,0,0,0,276.423,35.293Z" transform="translate(-265.376 -32.055)" fill="#bec8f7"/>
      <circle id="Ellipse_811" data-name="Ellipse 811" cx="2.328" cy="2.328" r="2.328" transform="translate(11.616 7.344) rotate(-76.7)" fill="#ff4155"/>
      <path id="Path_65823" data-name="Path 65823" d="M390.413,89.528a.183.183,0,0,0-.138-.16.25.25,0,0,1-.126-.081.166.166,0,0,1-.022-.034,1.755,1.755,0,0,0-.726-.729.482.482,0,0,1-.283-.627.182.182,0,0,0-.045-.191.842.842,0,0,1-.111-1.121.185.185,0,0,0,.028-.085,2.328,2.328,0,1,0,2.394,3.777C390.581,90.312,390.435,89.8,390.413,89.528Z" transform="translate(-375.227 -83.774)" fill="#e80054"/>
      <path id="Path_65824" data-name="Path 65824" d="M414.886,119.738a.8.8,0,0,0-1.088-.3l-.094.052a.139.139,0,0,1-.136,0l-.111-.062a.784.784,0,0,0-1.078.322h0a.782.782,0,0,0,.3,1.038,3.556,3.556,0,0,1,.835.663.168.168,0,0,0,.248,0,3.556,3.556,0,0,1,.835-.663A.782.782,0,0,0,414.886,119.738Z" transform="translate(-399.223 -115.442)" fill="#e9efff"/>
      <path id="Path_65825" data-name="Path 65825" d="M412.677,120.811a3.554,3.554,0,0,1,.835.663.168.168,0,0,0,.248,0,3.423,3.423,0,0,1,.586-.5.193.193,0,0,0-.076-.04.25.25,0,0,1-.126-.081.163.163,0,0,1-.022-.034,1.754,1.754,0,0,0-.726-.729.482.482,0,0,1-.283-.627.179.179,0,0,0,0-.1.783.783,0,0,0-.738.42h0A.782.782,0,0,0,412.677,120.811Z" transform="translate(-399.222 -115.464)" fill="#bec8f7"/>
      <circle id="Ellipse_812" data-name="Ellipse 812" cx="2.328" cy="2.328" r="2.328" transform="translate(11.417 9.757) rotate(-45)" fill="#ffb332"/>
      <path id="Path_65826" data-name="Path 65826" d="M397.694,241.769l-.557-2.517a.818.818,0,0,1-.489-1.109,2.328,2.328,0,1,0,1.448,4.416A.63.63,0,0,1,397.694,241.769Z" transform="translate(-382.524 -230.603)" fill="#ff9100"/>
      <path id="Path_65827" data-name="Path 65827" d="M419.309,266.362H421.4a.337.337,0,0,1,.336.336v1.486a.337.337,0,0,1-.336.336h-.3a.1.1,0,0,0-.083.045l-.206.314a.127.127,0,0,1-.212,0l-.206-.314a.1.1,0,0,0-.083-.045h-1a.337.337,0,0,1-.336-.336V266.7A.337.337,0,0,1,419.309,266.362Z" transform="translate(-405.643 -257.696)" fill="#e9efff"/>
      <g id="Group_23111-2" data-name="Group 23111" transform="translate(13.866 8.707)">
        <path id="Path_65828" data-name="Path 65828" d="M419.921,268.184V266.7a.337.337,0,0,1,.336-.336h-.946a.337.337,0,0,0-.336.336v1.486a.337.337,0,0,0,.336.336h.946A.337.337,0,0,1,419.921,268.184Z" transform="translate(-418.975 -266.362)" fill="#bec8f7"/>
      </g>
      <path id="Path_65829" data-name="Path 65829" d="M296.41,33.159a.787.787,0,1,0,1.178,0,1.867,1.867,0,0,0-1.178,0Z" transform="translate(-286.437 -31.791)" fill="#47477f"/>
      <path id="Path_65830" data-name="Path 65830" d="M112.951,393.08a.517.517,0,0,1-.618-.078l-.036-.035-.783.452,1.555,1.629c.034-.017.068-.034.1-.053a1.534,1.534,0,0,0,.561-2.1,1.55,1.55,0,0,0-.133-.194Z" transform="translate(-107.866 -380.283)" fill="#d3dcfb"/>
      <path id="Path_65831" data-name="Path 65831" d="M112.333,399.4l-.036-.035-.783.452,1.555,1.629c.034-.017.068-.034.1-.053a1.526,1.526,0,0,0,.573-.581,1.052,1.052,0,0,1-.793-1.334.517.517,0,0,1-.618-.078Z" transform="translate(-107.858 -386.683)" fill="#bec8f7"/>
      <path id="Path_65832" data-name="Path 65832" d="M69.582,409.592l-1.76,1.016a9.61,9.61,0,0,0,5.517,2.919Z" transform="translate(-65.156 -396.507)" fill="#e9efff"/>
      <path id="Path_65833" data-name="Path 65833" d="M71.156,411.239l-1.573-1.648-1.76,1.016a9.673,9.673,0,0,0,2.092,1.681C69.872,411.087,71.156,411.239,71.156,411.239Z" transform="translate(-65.156 -396.506)" fill="#d3dcfb"/>
      <g id="Group_23112" data-name="Group 23112" transform="translate(0 8.491)">
        <path id="Path_65834" data-name="Path 65834" d="M1.642,260.068l-.538-.932a.592.592,0,1,0-1.025.592l.538.932Z" transform="translate(0 -258.84)" fill="#e9efff"/>
      </g>
      <path id="Path_65835" data-name="Path 65835" d="M4.755,268.775c0,.021,0,.043,0,.065a.656.656,0,0,1-1.015.55l.47.815,1.025-.592Z" transform="translate(-3.597 -259.921)" fill="#d3dcfb"/>
      <path id="Path_65836" data-name="Path 65836" d="M7.344,282l2.539-1.466a.583.583,0,0,1-.1-.125L7.125,275.8a.581.581,0,0,1-.059-.147l-2.26,1.3A9.6,9.6,0,0,0,7.344,282Z" transform="translate(-4.616 -267.832)" fill="#ff7186"/>
      <path id="Path_65837" data-name="Path 65837" d="M8.327,278.138l0-.253-1.2-2.086a.581.581,0,0,1-.059-.147l-2.26,1.3a9.565,9.565,0,0,0,.861,2.651.826.826,0,0,1,.392-.67s.688-.4,1.287-.733A.956.956,0,0,1,8.327,278.138Z" transform="translate(-4.616 -266.841)" fill="#ff4155"/>
      <g id="Group_23113" data-name="Group 23113" transform="translate(3.89 3.158)">
        <path id="Path_65838" data-name="Path 65838" d="M134.69,123.438a9.043,9.043,0,0,1,5.5-.381l-5.429-9.4a9.043,9.043,0,0,1-3.08,4.573.578.578,0,0,1,.275.243l2.661,4.608A.578.578,0,0,1,134.69,123.438Z" transform="translate(-131.681 -113.654)" fill="#d3dcfb"/>
      </g>
      <g id="Group_23114" data-name="Group 23114" transform="translate(4.171 3.425)">
        <path id="Path_65839" data-name="Path 65839" d="M136.659,116.943l-1.9-3.289a9.043,9.043,0,0,1-3.08,4.573.578.578,0,0,1,.275.243l1.3,2.244A11.448,11.448,0,0,0,136.659,116.943Z" transform="translate(-131.68 -113.654)" fill="#bec8f7"/>
      </g>
      <path id="Path_65840" data-name="Path 65840" d="M64.668,233.36l-2.122,1.225a.582.582,0,0,1-.794-.213l-2.661-4.608a.582.582,0,0,1,.213-.794l2.122-1.225a.582.582,0,0,1,.794.213l2.661,4.608A.582.582,0,0,1,64.668,233.36Z" transform="translate(-56.693 -220.774)" fill="#ff4155"/>
      <path id="Path_65841" data-name="Path 65841" d="M62.221,227.958a.582.582,0,0,0-.794-.213L59.3,228.97a.582.582,0,0,0-.213.794l1.313,2.275a.459.459,0,0,1,.7-.365l1.763-1.018a.486.486,0,0,1,.644-.462Z" transform="translate(-56.694 -220.437)" fill="#e80054"/>
      <g id="Group_23115" data-name="Group 23115" transform="translate(2.751 8.313)">
        <path id="Path_65842" data-name="Path 65842" d="M83.868,253.407a.295.295,0,0,1-.148-.55l1.252-.723a.295.295,0,1,1,.295.511l-1.252.723A.293.293,0,0,1,83.868,253.407Z" transform="translate(-83.573 -252.095)" fill="#ff7186"/>
      </g>
      <g id="Group_23116" data-name="Group 23116" transform="translate(3.206 9.104)">
        <path id="Path_65843" data-name="Path 65843" d="M97.687,277.343a.295.295,0,0,1-.148-.55l1.252-.723a.295.295,0,0,1,.295.511l-1.252.723A.293.293,0,0,1,97.687,277.343Z" transform="translate(-97.392 -276.031)" fill="#ff7186"/>
      </g>
      <g id="Group_23117" data-name="Group 23117" transform="translate(3.66 9.896)">
        <path id="Path_65844" data-name="Path 65844" d="M111.506,301.278a.295.295,0,0,1-.148-.55l1.252-.723a.295.295,0,0,1,.295.511l-1.252.723A.293.293,0,0,1,111.506,301.278Z" transform="translate(-111.211 -299.966)" fill="#ff7186"/>
      </g>
      <g id="Group_23118" data-name="Group 23118" transform="translate(4.115 10.687)">
        <path id="Path_65845" data-name="Path 65845" d="M125.325,325.213a.295.295,0,0,1-.148-.55l1.252-.723a.295.295,0,1,1,.295.511l-1.252.723A.293.293,0,0,1,125.325,325.213Z" transform="translate(-125.03 -323.901)" fill="#ff7186"/>
      </g>
      <g id="Group_23119" data-name="Group 23119" transform="translate(4.57 11.479)">
        <path id="Path_65846" data-name="Path 65846" d="M139.144,349.148a.295.295,0,0,1-.148-.55l1.252-.723a.295.295,0,0,1,.295.511l-1.252.723A.294.294,0,0,1,139.144,349.148Z" transform="translate(-138.849 -347.836)" fill="#ff7186"/>
      </g>
      <g id="Group_23120" data-name="Group 23120" transform="translate(6.336 2.436)">
        <path id="Path_65847" data-name="Path 65847" d="M212.141,101.779a.592.592,0,0,1-.808-.217l-5.469-9.472a.592.592,0,1,1,1.025-.592l5.469,9.472A.592.592,0,0,1,212.141,101.779Z" transform="translate(-205.785 -91.203)" fill="#e9efff"/>
      </g>
      <path id="Path_65848" data-name="Path 65848" d="M208.147,94.811a.693.693,0,0,1,.64-.027l-1.9-3.285a.592.592,0,0,0-1.025.592l1.935,3.352A.693.693,0,0,1,208.147,94.811Z" transform="translate(-199.097 -88.313)" fill="#d3dcfb"/>
      <path id="Path_65849" data-name="Path 65849" d="M227.446,391.365c-.611-.938-1.681-2.018-2.971-1.864-2.205.262-7.669.554-3.526,4.817A9.6,9.6,0,0,0,227.446,391.365Z" transform="translate(-212.876 -377.19)" fill="#827df9"/>
      <path id="Path_65850" data-name="Path 65850" d="M20.272,42.022c.732,4.173,6-2.487,6.28-3.963a1.333,1.333,0,0,0-.606-1.4A9.659,9.659,0,0,0,20.272,42.022Z" transform="translate(-19.475 -35.244)" fill="#827df9"/>
      <circle id="Ellipse_813" data-name="Ellipse 813" cx="0.287" cy="0.287" r="0.287" transform="translate(10.485 1.486)" fill="#5f5f9b"/>
    </g>
  </g>
</svg>
