<svg xmlns="http://www.w3.org/2000/svg" xmlns:xlink="http://www.w3.org/1999/xlink" width="44" height="44" viewBox="0 0 44 44">
  <defs>
    <clipPath id="clip-path">
      <rect id="Rectangle_12669" data-name="Rectangle 12669" width="20" height="20" transform="translate(14 14)" fill="#689e37"/>
    </clipPath>
  </defs>
  <g id="Group_22989" data-name="Group 22989" transform="translate(-2 -2)">
    <path id="Path_65743" data-name="Path 65743" d="M22,0A22,22,0,1,1,0,22,22,22,0,0,1,22,0Z" transform="translate(2 2)" fill="#689e37" opacity="0.17"/>
    <g id="Mask_Group_19806" data-name="Mask Group 19806" clip-path="url(#clip-path)">
      <g id="call-outgoing" transform="translate(12.856 12.837)">
        <path id="Path_65748" data-name="Path 65748" d="M16.233,21.163a8.51,8.51,0,0,1-3.3-.735,17.465,17.465,0,0,1-3.34-1.916,29.036,29.036,0,0,1-3.135-2.67,27.792,27.792,0,0,1-2.67-3.126A17.36,17.36,0,0,1,1.888,9.4a8.613,8.613,0,0,1-.726-3.321,5.606,5.606,0,0,1,.381-2.056,4.968,4.968,0,0,1,1.247-1.8A3.378,3.378,0,0,1,5.2,1.163,2.516,2.516,0,0,1,6.251,1.4a2.129,2.129,0,0,1,.893.753L9.3,5.191a3.6,3.6,0,0,1,.447.791,2.09,2.09,0,0,1,.186.828,1.974,1.974,0,0,1-.3,1.023,3.721,3.721,0,0,1-.623.791l-.633.66a.454.454,0,0,0,.028.065,7.154,7.154,0,0,0,.763,1.033c.456.521.884,1,1.312,1.433.549.54,1,.967,1.433,1.321A6.059,6.059,0,0,0,13,13.907l-.019.047.679-.67a3.474,3.474,0,0,1,.837-.642,1.964,1.964,0,0,1,1.814-.1,4.235,4.235,0,0,1,.781.437l3.088,2.2a2,2,0,0,1,.744.884,2.692,2.692,0,0,1,.2,1,3.1,3.1,0,0,1-.3,1.312,4.332,4.332,0,0,1-.744,1.116,4.771,4.771,0,0,1-1.777,1.274,5.492,5.492,0,0,1-2.074.4ZM5.2,2.558a2.039,2.039,0,0,0-1.442.67A3.569,3.569,0,0,0,2.847,4.54a4.07,4.07,0,0,0-.288,1.544,7.172,7.172,0,0,0,.614,2.772,15.528,15.528,0,0,0,1.749,3.033,25.736,25.736,0,0,0,2.521,2.958,26.192,26.192,0,0,0,2.967,2.53,15.114,15.114,0,0,0,3.06,1.758,5.548,5.548,0,0,0,4.307.326,3.434,3.434,0,0,0,1.274-.921,3.017,3.017,0,0,0,.521-.781,1.648,1.648,0,0,0,.167-.716,1.11,1.11,0,0,0-.1-.465.7.7,0,0,0-.26-.279l-3.088-2.2a2.667,2.667,0,0,0-.512-.288.489.489,0,0,0-.6.028,2.121,2.121,0,0,0-.54.419l-.707.7a1.326,1.326,0,0,1-1.349.279l-.251-.112A7.93,7.93,0,0,1,11,14.186c-.447-.381-.93-.828-1.516-1.4-.456-.465-.912-.958-1.386-1.507a7.937,7.937,0,0,1-.949-1.312l-.112-.279a1.736,1.736,0,0,1-.074-.465,1.194,1.194,0,0,1,.353-.865l.7-.726a2.694,2.694,0,0,0,.419-.521.6.6,0,0,0,.1-.316.865.865,0,0,0-.074-.3A2.669,2.669,0,0,0,8.167,6L6.009,2.949a.858.858,0,0,0-.344-.288,1.165,1.165,0,0,0-.465-.1Zm7.777,11.4-.149.633.251-.651a.115.115,0,0,0-.1.019Z" fill="#689e37"/>
        <path id="Path_65749" data-name="Path 65749" d="M18.6,8.884a.7.7,0,0,1-.7-.7V4.419H14.14a.7.7,0,0,1,0-1.4H18.6a.7.7,0,0,1,.7.7V8.186A.7.7,0,0,1,18.6,8.884Z" fill="#689e37"/>
      </g>
    </g>
  </g>
</svg>
