<svg xmlns="http://www.w3.org/2000/svg" xmlns:xlink="http://www.w3.org/1999/xlink" width="44" height="44" viewBox="0 0 44 44">
  <defs>
    <clipPath id="clip-path">
      <rect id="Rectangle_12669" data-name="Rectangle 12669" width="20" height="20" transform="translate(14 14)" fill="#a0f"/>
    </clipPath>
  </defs>
  <g id="Group_22989" data-name="Group 22989" transform="translate(-2 -2)">
    <path id="Path_65743" data-name="Path 65743" d="M22,0A22,22,0,1,1,0,22,22,22,0,0,1,22,0Z" transform="translate(2 2)" fill="#a0f" opacity="0.17"/>
    <g id="Mask_Group_19804" data-name="Mask Group 19804" clip-path="url(#clip-path)">
      <g id="messages-2" transform="translate(12.832 12.827)">
        <path id="Path_65745" data-name="Path 65745" d="M16.631,20.354a1.6,1.6,0,0,1-.838-.233l-3.732-2.215a9.34,9.34,0,0,1-1.154-.093.707.707,0,0,1-.558-.447.682.682,0,0,1,.121-.7,3.766,3.766,0,0,0,.931-2.485A4.268,4.268,0,0,0,6.98,10.1a4.571,4.571,0,0,0-2.522.735.705.705,0,0,1-1.08-.5,7.37,7.37,0,0,1-.047-.791,8.664,8.664,0,0,1,8.916-8.367,8.664,8.664,0,0,1,8.916,8.367,8.079,8.079,0,0,1-3.239,6.45l.316,2.531a1.631,1.631,0,0,1-1.61,1.833ZM12.238,16.5a.6.6,0,0,1,.372.1l3.9,2.317a.207.207,0,0,0,.242,0,.225.225,0,0,0,.1-.233l-.363-2.941a.72.72,0,0,1,.289-.661,6.764,6.764,0,0,0,2.987-5.565,7.266,7.266,0,0,0-7.52-6.971A7.323,7.323,0,0,0,4.737,9.1a6.184,6.184,0,0,1,2.234-.419,5.659,5.659,0,0,1,5.817,5.482,5.075,5.075,0,0,1-.549,2.336Z" fill="#a0f"/>
        <path id="Path_65746" data-name="Path 65746" d="M4.262,21.173a1.24,1.24,0,0,1-.689-.2,1.275,1.275,0,0,1-.586-1.228l.186-1.433a5.283,5.283,0,0,1,.54-8.655,6,6,0,0,1,3.276-.959,5.659,5.659,0,0,1,5.817,5.482,5.245,5.245,0,0,1-1.266,3.4,5.831,5.831,0,0,1-4.356,2.075L4.914,21a1.271,1.271,0,0,1-.651.177ZM6.98,10.088a4.571,4.571,0,0,0-2.522.735,3.989,3.989,0,0,0-1.9,3.35,3.889,3.889,0,0,0,1.75,3.239.707.707,0,0,1,.3.661l-.2,1.591,2.224-1.322a.705.705,0,0,1,.354-.1,4.509,4.509,0,0,0,3.481-1.582,3.817,3.817,0,0,0,.94-2.494A4.266,4.266,0,0,0,6.98,10.088Z" fill="#a0f"/>
      </g>
    </g>
  </g>
</svg>
