<svg xmlns="http://www.w3.org/2000/svg" width="44" height="44" viewBox="0 0 44 44">
  <g id="Group_22989" data-name="Group 22989" transform="translate(-2 -2)">
    <path id="Path_65743" data-name="Path 65743" d="M22,0A22,22,0,1,1,0,22,22,22,0,0,1,22,0Z" transform="translate(2 2)" fill="#f36" opacity="0.17"/>
    <g id="Group_22992" data-name="Group 22992" transform="translate(9.06 7.813)">
      <path id="Path_65761" data-name="Path 65761" d="M23.173,14.737a2.406,2.406,0,1,0-2.338-1.862L18.28,13.919a3.618,3.618,0,0,0-5.437-1.1L8.808,8.78a1.577,1.577,0,0,0,.233-.817A1.595,1.595,0,1,0,7.446,9.558a1.578,1.578,0,0,0,.818-.233L12.3,13.359a3.608,3.608,0,0,0-.541,3.608L8.341,18.78a2.38,2.38,0,1,0,.362.679l3.415-1.811a3.623,3.623,0,0,0,1.695,1.347l-.981,3.674a1.591,1.591,0,1,0,.742.2l.984-3.684a3.577,3.577,0,0,0,2.817-.752l3.851,3.855a2.4,2.4,0,1,0,1.947-1,2.384,2.384,0,0,0-1.4.456l-3.851-3.854a3.609,3.609,0,0,0,.657-3.262l2.551-1.042a2.4,2.4,0,0,0,2.045,1.15ZM6.43,21.859a1.632,1.632,0,1,1,1.632-1.632A1.631,1.631,0,0,1,6.43,21.859Zm6.376,3.226a.825.825,0,1,1,.825-.825.825.825,0,0,1-.825.825ZM6.622,7.963a.825.825,0,1,1,.825.825.825.825,0,0,1-.825-.825ZM24.8,23.69a1.632,1.632,0,1,1-1.632-1.632A1.631,1.631,0,0,1,24.8,23.69ZM17.12,17.634a2.842,2.842,0,0,1-4.02-4.018A2.842,2.842,0,0,1,17.12,17.634Zm6.053-6.93a1.632,1.632,0,1,1-1.632,1.632A1.631,1.631,0,0,1,23.173,10.7Z" transform="translate(0 0)" fill="#f36" stroke="#f36" stroke-width="0.5"/>
    </g>
  </g>
</svg>
