<svg xmlns="http://www.w3.org/2000/svg" width="44" height="44" viewBox="0 0 44 44">
  <g id="Group_22989" data-name="Group 22989" transform="translate(-2 -2)">
    <path id="Path_65743" data-name="Path 65743" d="M22,0A22,22,0,1,1,0,22,22,22,0,0,1,22,0Z" transform="translate(2 2)" fill="#e03" opacity="0.17"/>
    <g id="Group_22991" data-name="Group 22991" transform="translate(1.25 12.334)">
      <g id="Group_22991-2" data-name="Group 22991" transform="translate(10.75)">
        <path id="Path_65750" data-name="Path 65750" d="M30.846,6.113h-7.92V6.088a6.088,6.088,0,1,0-6.762,6.051V18.07a1.944,1.944,0,0,0,1.942,1.941h8.078l.774,2.1a1.355,1.355,0,0,0,2.544,0l.774-2.1h.57a1.944,1.944,0,0,0,1.942-1.941V8.055a1.944,1.944,0,0,0-1.942-1.942ZM12.1,6.088a4.74,4.74,0,1,1,4.066,4.692A4.746,4.746,0,0,1,12.1,6.088ZM31.44,18.07a.6.6,0,0,1-.594.594H29.806a.674.674,0,0,0-.633.441l-.936,2.546,0,0h-.01l0,0L27.287,19.1a.674.674,0,0,0-.633-.441H18.106a.6.6,0,0,1-.594-.594V12.139A6.1,6.1,0,0,0,22.77,7.461h8.077a.6.6,0,0,1,.594.594Z" transform="translate(-10.75)" fill="#e03"/>
        <path id="Path_65751" data-name="Path 65751" d="M88.9,84.349A.674.674,0,1,0,87.7,84.17.674.674,0,0,0,88.9,84.349Z" transform="translate(-84.211 -79.558)" fill="#e03"/>
        <path id="Path_65752" data-name="Path 65752" d="M175.506,84.652a.674.674,0,1,0-.67-.74A.674.674,0,0,0,175.506,84.652Z" transform="translate(-167.46 -79.562)" fill="#e03"/>
        <path id="Path_65753" data-name="Path 65753" d="M108.452,145.152a.674.674,0,0,0,.818.49c1.089-.273.271-2.206-1.29-2.206a1.832,1.832,0,0,0-1.78,1.388.674.674,0,1,0,1.307.328.487.487,0,0,1,.945,0Z" transform="translate(-101.892 -136.992)" fill="#e03"/>
        <path id="Path_65754" data-name="Path 65754" d="M228.518,317.382h-7.247a.674.674,0,1,0,0,1.348h7.247a.674.674,0,1,0,0-1.348Z" transform="translate(-211.169 -303.122)" fill="#e03"/>
        <path id="Path_65755" data-name="Path 65755" d="M275.582,234.083h-5.033a.674.674,0,1,0,0,1.348h5.033a.674.674,0,1,0,0-1.348Z" transform="translate(-258.233 -223.566)" fill="#e03"/>
      </g>
    </g>
  </g>
</svg>
