<svg xmlns="http://www.w3.org/2000/svg" xmlns:xlink="http://www.w3.org/1999/xlink" width="24" height="24" viewBox="0 0 24 24">
  <defs>
    <clipPath id="clip-path-board">
      <rect id="Rectangle_12675" data-name="Rectangle 12675" width="24" height="24" transform="translate(114 554)" fill="#667085" stroke="#707070" stroke-width="1"/>
    </clipPath>
  </defs>
  <g id="Mask_Group_19811" data-name="Mask Group 19811" transform="translate(-114 -554)" clip-path="url(#clip-path-board)">
    <g id="note-21" transform="translate(112.605 552.604)">
      <path id="Path_65870" data-name="Path 65870" d="M17.86,25.4H8.93c-3.371,0-5.3-1.931-5.3-5.3V9.209c0-3.516,1.786-5.3,5.3-5.3a.843.843,0,0,1,.837.837,1.673,1.673,0,0,0,1.674,1.674h3.907a1.672,1.672,0,0,0,1.674-1.674.843.843,0,0,1,.837-.837c3.516,0,5.3,1.786,5.3,5.3V20.093C23.163,23.464,21.232,25.4,17.86,25.4ZM8.2,5.6c-1.764.145-2.9.938-2.9,3.606V20.093c0,2.478,1.15,3.628,3.628,3.628h8.93c2.478,0,3.628-1.15,3.628-3.628V9.209c0-2.668-1.139-3.449-2.9-3.606a3.356,3.356,0,0,1-3.237,2.489H11.442a3.318,3.318,0,0,1-2.367-.982A3.372,3.372,0,0,1,8.2,5.6Z" fill="#667085"/>
      <path id="Path_65871" data-name="Path 65871" d="M15.349,8.093H11.442A3.354,3.354,0,0,1,8.093,4.744,3.359,3.359,0,0,1,11.442,1.4h3.907A3.354,3.354,0,0,1,18.7,4.744,3.359,3.359,0,0,1,15.349,8.093ZM11.442,3.07a1.674,1.674,0,0,0,0,3.349h3.907a1.674,1.674,0,0,0,0-3.349Z" fill="#667085"/>
      <path id="Path_65872" data-name="Path 65872" d="M13.4,15.349H8.93a.837.837,0,1,1,0-1.674H13.4a.837.837,0,1,1,0,1.674Z" fill="#667085"/>
      <path id="Path_65873" data-name="Path 65873" d="M17.86,19.814H8.93a.837.837,0,1,1,0-1.674h8.93a.837.837,0,0,1,0,1.674Z" fill="#667085"/>
    </g>
  </g>
</svg>
