<svg xmlns="http://www.w3.org/2000/svg" xmlns:xlink="http://www.w3.org/1999/xlink" width="24" height="24" viewBox="0 0 24 24">
  <defs>
    <clipPath id="clip-path-calendar">
      <rect id="Rectangle_12673" data-name="Rectangle 12673" width="24" height="24" transform="translate(114 442)" fill="#667085" stroke="#707070" stroke-width="1"/>
    </clipPath>
  </defs>
  <g id="Mask_Group_19809" data-name="Mask Group 19809" transform="translate(-114 -442)" clip-path="url(#clip-path-calendar)">
    <g id="calendar-1" transform="translate(112.605 440.604)">
      <path id="Path_65855" data-name="Path 65855" d="M8.93,6.419a.843.843,0,0,1-.837-.837V2.233a.837.837,0,0,1,1.674,0V5.581A.843.843,0,0,1,8.93,6.419Z" fill="#667085"/>
      <path id="Path_65856" data-name="Path 65856" d="M17.86,6.419a.843.843,0,0,1-.837-.837V2.233a.837.837,0,0,1,1.674,0V5.581A.843.843,0,0,1,17.86,6.419Z" fill="#667085"/>
      <path id="Path_65857" data-name="Path 65857" d="M9.488,16.186a1.111,1.111,0,0,1-.424-.089,1.071,1.071,0,0,1-.692-1.027,1.111,1.111,0,0,1,.089-.424,1.289,1.289,0,0,1,.234-.368,1.152,1.152,0,0,1,.368-.234,1.14,1.14,0,0,1,1.217.234,1.174,1.174,0,0,1,.324.793,1.678,1.678,0,0,1-.022.223.71.71,0,0,1-.067.2.845.845,0,0,1-.1.2,1.759,1.759,0,0,1-.134.167,1.174,1.174,0,0,1-.793.324Z" fill="#667085"/>
      <path id="Path_65858" data-name="Path 65858" d="M13.4,16.186a1.111,1.111,0,0,1-.424-.089,1.071,1.071,0,0,1-.692-1.027,1.111,1.111,0,0,1,.089-.424,1.289,1.289,0,0,1,.234-.368,1.152,1.152,0,0,1,.368-.234,1.119,1.119,0,0,1,1.217.234,1.174,1.174,0,0,1,.324.793,1.678,1.678,0,0,1-.022.223.71.71,0,0,1-.067.2.845.845,0,0,1-.1.2,1.759,1.759,0,0,1-.134.167,1.174,1.174,0,0,1-.793.324Z" fill="#667085"/>
      <path id="Path_65859" data-name="Path 65859" d="M17.3,16.186a1.111,1.111,0,0,1-.424-.089,1.152,1.152,0,0,1-.368-.234l-.134-.167a.845.845,0,0,1-.1-.2.71.71,0,0,1-.067-.2,1.678,1.678,0,0,1-.022-.223,1.174,1.174,0,0,1,.324-.793,1.152,1.152,0,0,1,.368-.234,1.115,1.115,0,0,1,1.217.234,1.174,1.174,0,0,1,.324.793,1.678,1.678,0,0,1-.022.223.71.71,0,0,1-.067.2.845.845,0,0,1-.1.2,1.759,1.759,0,0,1-.134.167A1.174,1.174,0,0,1,17.3,16.186Z" fill="#667085"/>
      <path id="Path_65860" data-name="Path 65860" d="M9.488,20.093A1.111,1.111,0,0,1,9.064,20a1.289,1.289,0,0,1-.368-.234,1.174,1.174,0,0,1-.324-.793,1.111,1.111,0,0,1,.089-.424,1.042,1.042,0,0,1,.234-.368,1.121,1.121,0,1,1,.793,1.909Z" fill="#667085"/>
      <path id="Path_65861" data-name="Path 65861" d="M13.4,20.093a1.105,1.105,0,0,1-1.116-1.116,1.111,1.111,0,0,1,.089-.424,1.042,1.042,0,0,1,.234-.368,1.169,1.169,0,0,1,1.585,0,1.042,1.042,0,0,1,.234.368,1.111,1.111,0,0,1,.089.424A1.105,1.105,0,0,1,13.4,20.093Z" fill="#667085"/>
      <path id="Path_65862" data-name="Path 65862" d="M17.3,20.093a1.174,1.174,0,0,1-.793-.324,1.042,1.042,0,0,1-.234-.368,1.052,1.052,0,0,1,0-.848,1.042,1.042,0,0,1,.234-.368,1.114,1.114,0,0,1,1-.3.673.673,0,0,1,.212.067.845.845,0,0,1,.2.1,1.759,1.759,0,0,1,.167.134,1.116,1.116,0,0,1-.793,1.909Z" fill="#667085"/>
      <path id="Path_65863" data-name="Path 65863" d="M22.884,10.984H3.907a.837.837,0,0,1,0-1.674H22.884a.837.837,0,0,1,0,1.674Z" fill="#667085"/>
      <path id="Path_65864" data-name="Path 65864" d="M17.86,25.4H8.93c-4.074,0-6.419-2.344-6.419-6.419V9.488c0-4.074,2.344-6.419,6.419-6.419h8.93c4.074,0,6.419,2.344,6.419,6.419v9.488C24.279,23.051,21.935,25.4,17.86,25.4ZM8.93,4.744c-3.193,0-4.744,1.552-4.744,4.744v9.488c0,3.193,1.552,4.744,4.744,4.744h8.93c3.193,0,4.744-1.552,4.744-4.744V9.488c0-3.193-1.552-4.744-4.744-4.744Z" fill="#667085"/>
    </g>
  </g>
</svg>
