<svg id="Group_19898" data-name="Group 19898" xmlns="http://www.w3.org/2000/svg" width="17.861" height="17.861" viewBox="0 0 17.861 17.861">
  <path id="Path_63903" data-name="Path 63903" d="M110.224,104.443a5.73,5.73,0,0,0-11.46,0,5.671,5.671,0,0,0,.521,2.381.217.217,0,0,0,.024.051,5.732,5.732,0,0,0,10.915-2.432Zm-5.73-5.281a5.279,5.279,0,0,1,4.924,7.222,1.341,1.341,0,0,0-.826-.353.247.247,0,0,0-.21.115.743.743,0,0,1-1.172-.029.219.219,0,0,0-.181-.088,1.32,1.32,0,0,0-.622.172,1.487,1.487,0,0,0-1.012-.487.252.252,0,0,0-.218.12.88.88,0,0,1-1.388-.034.22.22,0,0,0-.181-.088,1.49,1.49,0,0,0-1.066.493,1.332,1.332,0,0,0-.582-.174.248.248,0,0,0-.21.115.743.743,0,0,1-1.172-.029.219.219,0,0,0-.181-.088,1.332,1.332,0,0,0-.839.325,5.279,5.279,0,0,1,4.935-7.193Zm-4.746,7.619a.9.9,0,0,1,.56-.308,1.179,1.179,0,0,0,1.731.005.892.892,0,0,1,.26.089,1.471,1.471,0,0,0-.145.636v1.975A5.323,5.323,0,0,1,99.748,106.781Zm2.841,2.589V107.2a1.064,1.064,0,0,1,.927-1.049,1.316,1.316,0,0,0,1.954.005,1.058,1.058,0,0,1,.889,1.044v2.181A5.305,5.305,0,0,1,102.589,109.37Zm4.206-.172V107.2a1.484,1.484,0,0,0-.144-.639.885.885,0,0,1,.288-.091,1.179,1.179,0,0,0,1.731.005.9.9,0,0,1,.554.336A5.323,5.323,0,0,1,106.8,109.2Z" transform="translate(-95.541 -95.505)" fill="#667085"/>
  <path id="Path_63904" data-name="Path 63904" d="M225.627,11.4a.218.218,0,0,0,.154-.372l-.963-.963a.218.218,0,0,0-.308,0l-.963.963a.218.218,0,0,0,.308.308l.557-.557v1.788a.218.218,0,0,0,.436,0V10.729c0-.007,0-.013,0-.02l.626.626a.217.217,0,0,0,.154.064Z" transform="translate(-215.733 -10)" fill="#667085"/>
  <path id="Path_63905" data-name="Path 63905" d="M223.548,426.762a.218.218,0,0,0,0,.308l.963.963a.218.218,0,0,0,.308,0l.963-.963a.218.218,0,0,0-.308-.308l-.557.557V425.53a.218.218,0,1,0-.436,0v1.838c0,.007,0,.013,0,.02l-.626-.626A.218.218,0,0,0,223.548,426.762Z" transform="translate(-215.734 -410.235)" fill="#667085"/>
  <path id="Path_63906" data-name="Path 63906" d="M11.181,225.844a.218.218,0,0,0,.154-.372l-.557-.557h1.788a.218.218,0,1,0,0-.436H10.709l.626-.626a.218.218,0,1,0-.308-.308l-.963.963a.218.218,0,0,0,0,.308l.963.963A.217.217,0,0,0,11.181,225.844Z" transform="translate(-10 -215.733)" fill="#667085"/>
  <path id="Path_63907" data-name="Path 63907" d="M427.07,223.547a.218.218,0,0,0-.308.308l.557.557H425.53a.218.218,0,1,0,0,.436h1.858l-.626.626a.218.218,0,0,0,.308.308l.963-.963a.218.218,0,0,0,0-.308Z" transform="translate(-410.235 -215.733)" fill="#667085"/>
  <path id="Path_63908" data-name="Path 63908" d="M80.509,82.088a.218.218,0,0,0,.218-.218v-.787l1.265,1.265a.218.218,0,1,0,.308-.308L81,80.74l-.016-.013h.887a.218.218,0,0,0,0-.436H80.509a.218.218,0,0,0-.218.218V81.87a.218.218,0,0,0,.218.218Z" transform="translate(-77.739 -77.739)" fill="#667085"/>
  <path id="Path_63909" data-name="Path 63909" d="M374.9,375.2a.218.218,0,0,0,.218.218h1.361a.218.218,0,0,0,.218-.218v-1.361a.218.218,0,1,0-.436,0v.788L375,373.366a.218.218,0,1,0-.308.308l1.3,1.3.016.013h-.887A.218.218,0,0,0,374.9,375.2Z" transform="translate(-361.39 -360.113)" fill="#667085"/>
  <path id="Path_63910" data-name="Path 63910" d="M375.422,81.873V80.512a.218.218,0,0,0-.218-.218h-1.361a.218.218,0,0,0,0,.436h.788l-1.265,1.265a.218.218,0,1,0,.308.308l1.3-1.3c.005-.005.009-.011.013-.016v.887a.218.218,0,1,0,.436,0Z" transform="translate(-360.112 -77.742)" fill="#667085"/>
  <path id="Path_63911" data-name="Path 63911" d="M82.349,374.693a.218.218,0,0,0-.308,0l-1.3,1.3c-.005.005-.009.011-.013.016v-.887a.218.218,0,1,0-.436,0v1.361a.218.218,0,0,0,.218.218h1.361a.218.218,0,1,0,0-.436h-.787L82.349,375A.218.218,0,0,0,82.349,374.693Z" transform="translate(-77.74 -361.391)" fill="#667085"/>
  <path id="Path_63912" data-name="Path 63912" d="M220.2,204.694a1.352,1.352,0,0,0,1.35-1.35v-.566a1.351,1.351,0,1,0-2.7,0v.566A1.352,1.352,0,0,0,220.2,204.694Zm-.915-1.917a.915.915,0,1,1,1.83,0v.566a.915.915,0,1,1-1.83,0Z" transform="translate(-211.272 -194.478)" fill="#667085"/>
  <path id="Path_63913" data-name="Path 63913" d="M315.23,224.276a1.211,1.211,0,0,0,1.209-1.209v-.5a1.209,1.209,0,1,0-2.419,0v.5A1.211,1.211,0,0,0,315.23,224.276Zm-.774-1.705a.774.774,0,1,1,1.547,0v.5a.775.775,0,0,1-.774.774h0a.775.775,0,0,1-.774-.774Z" transform="translate(-302.984 -213.688)" fill="#667085"/>
  <path id="Path_63914" data-name="Path 63914" d="M132.562,224.276a1.211,1.211,0,0,0,1.209-1.209v-.5a1.209,1.209,0,0,0-2.419,0v.5A1.211,1.211,0,0,0,132.562,224.276Zm-.774-1.705a.774.774,0,1,1,1.547,0v.5a.775.775,0,0,1-.774.774h0a.775.775,0,0,1-.774-.774Z" transform="translate(-126.947 -213.688)" fill="#667085"/>
</svg>
