<svg xmlns="http://www.w3.org/2000/svg" xmlns:xlink="http://www.w3.org/1999/xlink" width="16" height="16" viewBox="0 0 16 16">
  <defs>
    <clipPath id="clip-path">
      <rect id="Rectangle_7295" data-name="Rectangle 7295" width="16" height="16" rx="2" fill="#667085" stroke="#e6e6e6" stroke-width="1"/>
    </clipPath>
  </defs>
  <g id="Mask_Group_1039" data-name="Mask Group 1039" clip-path="url(#clip-path)">
    <g id="megaphone" transform="translate(0.964)">
      <g id="Group_15682" data-name="Group 15682" transform="translate(0 0.597)">
        <g id="Group_15681" data-name="Group 15681">
          <path id="Path_49692" data-name="Path 49692" d="M14.45,6.608l-5.3-5.3A1.406,1.406,0,0,0,6.989,3.087l-.007.037A9.809,9.809,0,0,1,4.29,8.153L1.858,10.584a1.405,1.405,0,0,0,0,1.988L3.184,13.9a1.405,1.405,0,0,0,1.988,0l.331-.331,2.32,2.32A1.406,1.406,0,1,0,9.811,13.9L8.817,12.9l.331-.331a1.405,1.405,0,0,0,0-1.988l-.225-.225a9.811,9.811,0,0,1,3.709-1.584l.037-.007A1.408,1.408,0,0,0,14.45,8.6h0A1.407,1.407,0,0,0,14.45,6.608ZM4.509,13.235a.468.468,0,0,1-.663,0L2.521,11.91a.468.468,0,0,1,0-.663l2.32-2.32,1.988,1.988Zm4.639,1.325a.469.469,0,1,1-.663.663L6.166,12.9l.663-.663ZM7.491,11.579c.141-.141.352-.357.685-.641l.31.31a.468.468,0,0,1,0,.663l-.331.331Zm.02-1.305L5.483,8.245A10.732,10.732,0,0,0,7.765,3.9l4.092,4.092A10.731,10.731,0,0,0,7.511,10.273Zm6.276-2.339a.468.468,0,0,1-.663,0l-5.3-5.3a.469.469,0,0,1,.663-.663l5.3,5.3A.469.469,0,0,1,13.787,7.934Z" transform="translate(-1.446 -0.895)" fill="#667085" stroke="#f8f8f8" stroke-width="0.4"/>
        </g>
      </g>
      <g id="Group_15684" data-name="Group 15684" transform="translate(2.263 10.149)">
        <g id="Group_15683" data-name="Group 15683">
          <path id="Path_49693" data-name="Path 49693" d="M6.3,15.36a.469.469,0,0,0-.663,0l-.663.663a.469.469,0,1,0,.663.663l.663-.663A.469.469,0,0,0,6.3,15.36Z" transform="translate(-4.841 -15.223)" fill="#667085" stroke="#f8f8f8" stroke-width="0.4"/>
        </g>
      </g>
      <g id="Group_15686" data-name="Group 15686" transform="translate(9.386)">
        <g id="Group_15685" data-name="Group 15685">
          <path id="Path_49694" data-name="Path 49694" d="M15.993,0a.469.469,0,0,0-.469.469v.937a.469.469,0,0,0,.937,0V.469A.469.469,0,0,0,15.993,0Z" transform="translate(-15.525)" fill="#667085" stroke="#f8f8f8" stroke-width="0.4"/>
        </g>
      </g>
      <g id="Group_15688" data-name="Group 15688" transform="translate(12.197 3.749)">
        <g id="Group_15687" data-name="Group 15687">
          <path id="Path_49695" data-name="Path 49695" d="M21.148,5.623h-.937a.469.469,0,0,0,0,.937h.937a.469.469,0,0,0,0-.937Z" transform="translate(-19.742 -5.623)" fill="#667085" stroke="#f8f8f8" stroke-width="0.4"/>
        </g>
      </g>
      <g id="Group_15690" data-name="Group 15690" transform="translate(11.26 0.937)">
        <g id="Group_15689" data-name="Group 15689">
          <path id="Path_49696" data-name="Path 49696" d="M20.074,1.543a.469.469,0,0,0-.663,0l-.937.937a.469.469,0,0,0,.663.663l.937-.937A.469.469,0,0,0,20.074,1.543Z" transform="translate(-18.336 -1.406)" fill="#667085" stroke="#f8f8f8" stroke-width="0.4"/>
        </g>
      </g>
    </g>
  </g>
</svg>
