<svg id="Group_19897" data-name="Group 19897" xmlns="http://www.w3.org/2000/svg" width="12.008" height="14.409" viewBox="0 0 12.008 14.409">
  <g id="_010---Campaign-Tweaking" data-name="010---Campaign-Tweaking">
    <path id="Shape" d="M.961,14.409H11.047a.961.961,0,0,0,.961-.961V3.362a.961.961,0,0,0-.961-.961H9.606V.961a.937.937,0,0,0-.28-.676A.941.941,0,0,0,8.645,0a.955.955,0,0,0-.677.281,2.5,2.5,0,0,1-1.38.725l-1.56.2H3.122a.72.72,0,0,0-.72.72V2.4H.961A.961.961,0,0,0,0,3.362V13.449A.961.961,0,0,0,.961,14.409ZM6.648,1.482A2.954,2.954,0,0,0,8.307.621a.484.484,0,0,1,.679,0,.465.465,0,0,1,.14.336V3.807A.5.5,0,0,1,8.81,4.3a.486.486,0,0,1-.493-.1,3.176,3.176,0,0,0-1.669-.871L5.283,3.15v-1.5ZM4.786,4.913a.274.274,0,1,1-.517.182L3.869,3.6h.475Zm-1.9-2.992a.24.24,0,0,1,.24-.24H4.8v.48H3.6a.24.24,0,0,0,0,.48H4.8v.48H3.122a.24.24,0,0,1-.24-.24ZM.48,3.362a.48.48,0,0,1,.48-.48H2.4a.72.72,0,0,0,.72.72h.25l.435,1.624a.754.754,0,1,0,1.432-.474L4.851,3.6h.177l1.561.2a2.7,2.7,0,0,1,1.4.744.951.951,0,0,0,.655.261,1,1,0,0,0,.317-.052.976.976,0,0,0,.646-.944V2.882h1.441a.48.48,0,0,1,.48.48V13.449a.48.48,0,0,1-.48.48H.961a.48.48,0,0,1-.48-.48Z" transform="translate(0 0)" fill="#667085"/>
    <path id="Shape-2" data-name="Shape" d="M5.237,32.253h.744a.931.931,0,0,0,1.827,0h6.426a.251.251,0,0,0,0-.5H7.807a.931.931,0,0,0-1.827,0H5.237a.251.251,0,0,0,0,.5ZM6.894,31.5a.5.5,0,1,1-.473.5A.488.488,0,0,1,6.894,31.5Z" transform="translate(-3.731 -23.796)" fill="#667085"/>
    <path id="Shape-3" data-name="Shape" d="M5.237,48.2h6.189a.939.939,0,0,0,1.827,0h.981a.24.24,0,0,0,0-.48h-.981a.939.939,0,0,0-1.827,0H5.237a.24.24,0,0,0,0,.48Zm7.1-.72a.48.48,0,1,1-.474.48A.477.477,0,0,1,12.339,47.481Z" transform="translate(-3.731 -36.479)" fill="#667085"/>
  </g>
</svg>
