<svg xmlns="http://www.w3.org/2000/svg" xmlns:xlink="http://www.w3.org/1999/xlink" width="18" height="18" viewBox="0 0 18 18">
  <defs>
    <clipPath id="clip-path">
      <rect id="Rectangle_13197" data-name="Rectangle 13197" width="18" height="18" transform="translate(-6170 13949)" fill="#344054"/>
    </clipPath>
  </defs>
  <g id="Mask_Group_19885" data-name="Mask Group 19885" transform="translate(6170 -13949)" clip-path="url(#clip-path)">
    <g id="clipboard-tick" transform="translate(-6169.163 13949)">
      <path id="Path_66287" data-name="Path 66287" d="M11.44,17.387A.621.621,0,0,1,11,17.2L9.74,15.947a.628.628,0,0,1,.887-.887l.812.812,2.905-2.905a.628.628,0,0,1,.887.887L11.883,17.2A.607.607,0,0,1,11.44,17.387Z" transform="translate(-4.273 -4.243)" fill="#344054"/>
      <path id="Path_66288" data-name="Path 66288" d="M13.744,6H10.4c-.8,0-2.3,0-2.3-2.3s1.5-2.3,2.3-2.3h3.349c.8,0,2.3,0,2.3,2.3C16.047,4.5,16.047,6,13.744,6ZM10.4,2.651c-.829,0-1.047,0-1.047,1.047S9.567,4.744,10.4,4.744h3.349c1.047,0,1.047-.218,1.047-1.047,0-1.047-.218-1.047-1.047-1.047Z" transform="translate(-3.907 -1.395)" fill="#344054"/>
      <path id="Path_66289" data-name="Path 66289" d="M13.186,19.959H8.163c-4.705,0-5.651-2.16-5.651-5.651V9.284c0-3.818,1.381-5.45,4.78-5.626a.628.628,0,0,1,.661.594.621.621,0,0,1-.594.653c-2.378.134-3.592.846-3.592,4.379v5.023c0,3.1.611,4.4,4.4,4.4h5.023c3.784,0,4.4-1.3,4.4-4.4V9.284c0-3.533-1.214-4.245-3.592-4.379a.629.629,0,0,1,.067-1.256c3.4.184,4.78,1.817,4.78,5.626V14.3C18.837,17.8,17.891,19.959,13.186,19.959Z" transform="translate(-2.512 -1.959)" fill="#344054"/>
    </g>
  </g>
</svg>
