<svg xmlns="http://www.w3.org/2000/svg"  viewBox="0 0 18.5 23.345">
  <g id="Group_21302" data-name="Group 21302" transform="translate(-330.75 -309)">
    <path id="Path_64669" data-name="Path 64669" d="M1.321,0H8.589A1.321,1.321,0,0,1,9.911,1.321V12.553c0,.73-.427,1.978-1.321,1.321s-3.443-2.652-3.443-2.652-2.74,1.9-3.825,2.652S0,13.283,0,12.553V1.321A1.321,1.321,0,0,1,1.321,0Z" transform="translate(335.044 318.249)" fill="#ffcd26"/>
    <path id="Polygon_1" data-name="Polygon 1" d="M10.394.5a2,2,0,0,1,2.242.6l.3.366a2,2,0,0,0,1.211.7l.468.079a2,2,0,0,1,1.641,1.641l.079.468a2,2,0,0,0,.7,1.211l.366.3A2,2,0,0,1,18,8.106l-.166.444a2,2,0,0,0,0,1.4l.166.444a2,2,0,0,1-.6,2.242l-.366.3a2,2,0,0,0-.7,1.211l-.079.468a2,2,0,0,1-1.641,1.641l-.468.079a2,2,0,0,0-1.211.7l-.3.366a2,2,0,0,1-2.242.6l-.444-.166a2,2,0,0,0-1.4,0L8.106,18a2,2,0,0,1-2.242-.6l-.3-.366a2,2,0,0,0-1.211-.7l-.468-.079a2,2,0,0,1-1.641-1.641l-.079-.468a2,2,0,0,0-.7-1.211l-.366-.3a2,2,0,0,1-.6-2.242l.166-.444a2,2,0,0,0,0-1.4L.5,8.106a2,2,0,0,1,.6-2.242l.366-.3a2,2,0,0,0,.7-1.211l.079-.468A2,2,0,0,1,3.884,2.243l.468-.079a2,2,0,0,0,1.211-.7l.3-.366A2,2,0,0,1,8.106.5l.444.166a2,2,0,0,0,1.4,0Z" transform="translate(330.75 309)" fill="#e03"/>
    <ellipse id="Ellipse_479" data-name="Ellipse 479" cx="5.75" cy="5.749" rx="5.75" ry="5.749" transform="translate(334.25 312.5)" fill="#ffcd26"/>
    <path id="Polygon_2" data-name="Polygon 2" d="M4,0l.944,3.056H8L5.528,4.944,6.472,8,4,6.111,1.528,8l.944-3.056L0,3.056H3.056Z" transform="translate(336 314)" fill="#e03"/>
  </g>
</svg>
