<svg xmlns="http://www.w3.org/2000/svg" xmlns:xlink="http://www.w3.org/1999/xlink" width="20" height="20" viewBox="0 0 20 20">
  <defs>
    <clipPath id="clip-path">
      <rect id="Rectangle_11861" data-name="Rectangle 11861" width="20" height="20" fill="#a0f" stroke="#707070" stroke-width="1"/>
    </clipPath>
  </defs>
  <g id="Mask_Group_19646" data-name="Mask Group 19646" clip-path="url(#clip-path)">
    <g id="receipt-item" transform="translate(0.267 -0.001)">
      <path id="Path_64776" data-name="Path 64776" d="M17.591,10.643h-3.1a.684.684,0,0,1-.679-.679V3.632a2.505,2.505,0,0,1,2.5-2.5h.009a4.3,4.3,0,0,1,4.275,4.3V7.627A2.845,2.845,0,0,1,17.591,10.643ZM15.172,9.284h2.418a1.511,1.511,0,0,0,1.658-1.658V5.435a2.964,2.964,0,0,0-.861-2.083,3,3,0,0,0-2.065-.861h-.009a1.138,1.138,0,0,0-.806.335,1.123,1.123,0,0,0-.335.806V9.284Z" transform="translate(-1.132 -1.132)" fill="#a0f"/>
      <path id="Path_64777" data-name="Path 64777" d="M8.152,21.132a1.547,1.547,0,0,1-1.123-.471l-1.5-1.513a.223.223,0,0,0-.3-.018L3.668,20.29a1.583,1.583,0,0,1-2.536-1.268V5.435a3.915,3.915,0,0,1,4.3-4.3H16.3a.679.679,0,1,1,0,1.359,1.133,1.133,0,0,0-1.132,1.132v15.4A1.589,1.589,0,0,1,12.636,20.3l-1.549-1.159a.22.22,0,0,0-.29.018L9.275,20.679A1.605,1.605,0,0,1,8.152,21.132Zm-2.8-3.406a1.561,1.561,0,0,1,1.132.471l1.5,1.513a.241.241,0,0,0,.326,0l1.522-1.522a1.576,1.576,0,0,1,2.074-.136l1.54,1.15a.207.207,0,0,0,.236.018.225.225,0,0,0,.127-.2V3.623a2.486,2.486,0,0,1,.272-1.132H5.435c-2.011,0-2.944.933-2.944,2.944V19.022a.229.229,0,0,0,.127.208.212.212,0,0,0,.236-.027L4.4,18.043a1.6,1.6,0,0,1,.951-.317Z" transform="translate(-1.132 -1.132)" fill="#a0f"/>
      <path id="Path_64778" data-name="Path 64778" d="M10.87,12.464H8.152a.679.679,0,0,1,0-1.359H10.87a.679.679,0,0,1,0,1.359Z" transform="translate(-1.132 -1.132)" fill="#a0f"/>
      <path id="Path_64779" data-name="Path 64779" d="M10.87,8.841H8.152a.679.679,0,0,1,0-1.359H10.87a.679.679,0,0,1,0,1.359Z" transform="translate(-1.132 -1.132)" fill="#a0f"/>
      <path id="Path_64780" data-name="Path 64780" d="M5.408,9.067a.906.906,0,1,1,.906-.906A.908.908,0,0,1,5.408,9.067Z" transform="translate(-1.132 -1.132)" fill="#a0f"/>
      <path id="Path_64781" data-name="Path 64781" d="M5.408,12.69a.906.906,0,1,1,.906-.906A.908.908,0,0,1,5.408,12.69Z" transform="translate(-1.132 -1.132)" fill="#a0f"/>
    </g>
  </g>
</svg>
