<svg xmlns="http://www.w3.org/2000/svg" width="18.5" height="18.5" viewBox="0 0 18.5 18.5">
  <g id="Component_1111_4" data-name="Component 1111 – 4" transform="translate(0.25 0.25)">
    <g id="Group_23494" data-name="Group 23494">
      <g id="Group_23493" data-name="Group 23493" transform="translate(0)">
        <g id="Group_23492" data-name="Group 23492">
          <g id="Group_23491" data-name="Group 23491">
            <path id="Path_66076" data-name="Path 66076" d="M14,18H4a4,4,0,0,1-4-4V13a1,1,0,1,1,2,0v1a2,2,0,0,0,2,2H14a2,2,0,0,0,2-2V13a1,1,0,1,1,2,0v1a4,4,0,0,1-4,4ZM9,14a1,1,0,0,1-.7-.284h0l0,0h0l0,0h0l0,0-4-4A1,1,0,1,1,5.707,8.293L8,10.586V1a1,1,0,0,1,2,0v9.586l2.293-2.293a1,1,0,0,1,1.414,1.414l-4,4,0,0h0l0,0h0l0,0h0l-.034.031a.994.994,0,0,1-.276.174h0A1,1,0,0,1,9,14Z" transform="translate(0 0)" fill="#667085" stroke="#fff" stroke-width="0.5"/>
          </g>
        </g>
      </g>
    </g>
  </g>
</svg>
