<svg xmlns="http://www.w3.org/2000/svg" xmlns:xlink="http://www.w3.org/1999/xlink" width="12" height="13" viewBox="0 0 12 13">
  <defs>
    <clipPath id="clip-path-edit-icon">
      <rect id="Rectangle_11561" data-name="Rectangle 11561" width="12" height="13" transform="translate(13 2)" fill="#e03" stroke="#707070" stroke-width="1"/>
    </clipPath>
  </defs>
  <g id="Mask_Group_19624" data-name="Mask Group 19624" transform="translate(-13 -2)" clip-path="url(#clip-path-edit-icon)">
    <g id="edit-2" transform="translate(13.533 2.001)">
      <path id="Path_64587" data-name="Path 64587" d="M4.084,11.79a1.341,1.341,0,0,1-.93-.351,1.393,1.393,0,0,1-.4-1.188l.216-1.9a2.109,2.109,0,0,1,.509-1.088l4.8-5.084a2.333,2.333,0,0,1,3.721-.105A2.333,2.333,0,0,1,12.111,5.8l-4.8,5.084a2.109,2.109,0,0,1-1.059.568l-1.884.322c-.1.006-.187.018-.281.018Zm6.079-9.718a1.787,1.787,0,0,0-1.24.7l-4.8,5.09a1.351,1.351,0,0,0-.275.585l-.216,1.9a.514.514,0,0,0,.129.451.527.527,0,0,0,.456.105L6.1,10.579a1.307,1.307,0,0,0,.568-.3l4.8-5.084A1.484,1.484,0,0,0,11.4,2.71a1.85,1.85,0,0,0-1.235-.638Z" transform="translate(-2.159 -1.204)" fill="#e03"/>
      <path id="Path_64588" data-name="Path 64588" d="M13.034,7.521h-.041A4.014,4.014,0,0,1,9.418,4.139.441.441,0,1,1,10.29,4a3.143,3.143,0,0,0,2.8,2.645.439.439,0,0,1,.392.48.453.453,0,0,1-.445.392Z" transform="translate(-4.205 -1.949)" fill="#e03"/>
      <path id="Path_64589" data-name="Path 64589" d="M12.87,18.815H2.338a.439.439,0,0,1,0-.878H12.87a.439.439,0,1,1,0,.878Z" transform="translate(-1.899 -6.339)" fill="#e03"/>
    </g>
  </g>
</svg>
