<svg xmlns="http://www.w3.org/2000/svg" xmlns:xlink="http://www.w3.org/1999/xlink" width="50.373" height="48" viewBox="0 0 50.373 48">
  <defs>
    <clipPath id="clip-path-empty-session">
      <rect id="Rectangle_11311" data-name="Rectangle 11311" width="16" height="16" transform="translate(5 4)" fill="#475467"/>
    </clipPath>
  </defs>
  <g id="Group_23449" data-name="Group 23449" transform="translate(-1651.627 -362)">
    <g id="Group_20353" data-name="Group 20353" transform="translate(1650.689 361.063)">
      <path id="Path_64136" data-name="Path 64136" d="M23.811,46.685A22.874,22.874,0,1,1,46.685,23.811,22.893,22.893,0,0,1,23.811,46.685Zm0-42.555A19.682,19.682,0,1,0,43.493,23.811,19.705,19.705,0,0,0,23.811,4.129Z" transform="translate(0 0)" fill="#98a2b3"/>
      <path id="Path_64137" data-name="Path 64137" d="M9.778,43.179H7.65a1.607,1.607,0,0,1-1.6-1.6,1.585,1.585,0,0,1,1.553-1.6,62.748,62.748,0,0,1,0-35.108,1.585,1.585,0,0,1-1.553-1.6,1.607,1.607,0,0,1,1.6-1.6H9.778a1.632,1.632,0,0,1,1.3.66,1.6,1.6,0,0,1,.213,1.447,59.467,59.467,0,0,0,0,37.3,1.6,1.6,0,0,1-.213,1.447A1.676,1.676,0,0,1,9.778,43.179Z" transform="translate(7.65 1.378)" fill="#98a2b3"/>
      <path id="Path_64138" data-name="Path 64138" d="M12.287,43.191a1.43,1.43,0,0,1-.511-.085,1.585,1.585,0,0,1-1-2.021,59.467,59.467,0,0,0,0-37.3A1.595,1.595,0,0,1,13.8,2.763a62.381,62.381,0,0,1,0,39.3A1.582,1.582,0,0,1,12.287,43.191Z" transform="translate(17.908 1.366)" fill="#98a2b3"/>
      <path id="Path_64139" data-name="Path 64139" d="M22.433,16.966A62.079,62.079,0,0,1,4.879,14.455a1.6,1.6,0,0,1-3.192-.043V12.284a1.632,1.632,0,0,1,.66-1.3,1.6,1.6,0,0,1,1.447-.213,59.467,59.467,0,0,0,37.3,0,1.6,1.6,0,0,1,1.447.213,1.574,1.574,0,0,1,.66,1.3v2.128a1.607,1.607,0,0,1-1.6,1.6,1.585,1.585,0,0,1-1.6-1.553A62.335,62.335,0,0,1,22.433,16.966Z" transform="translate(1.378 17.91)" fill="#98a2b3"/>
      <path id="Path_64140" data-name="Path 64140" d="M41.588,11.38a1.43,1.43,0,0,1-.511-.085,59.467,59.467,0,0,0-37.3,0,1.594,1.594,0,0,1-2.021-1A1.623,1.623,0,0,1,2.778,8.274a62.381,62.381,0,0,1,39.3,0,1.585,1.585,0,0,1,1,2.021A1.551,1.551,0,0,1,41.588,11.38Z" transform="translate(1.373 7.643)" fill="#98a2b3"/>
    </g>
    <circle id="Ellipse_815" data-name="Ellipse 815" cx="11.5" cy="11.5" r="11.5" transform="translate(1679 387)" fill="#fff"/>
    <g id="Mask_Group_19695" data-name="Mask Group 19695" transform="translate(1678 387)" clip-path="url(#clip-path-empty-session)">
      <g id="block" transform="translate(5 4)">
        <path id="Path_65127" data-name="Path 65127" d="M9.2,1.2a8,8,0,1,0,8,8A8,8,0,0,0,9.2,1.2Zm-6.4,8A6.4,6.4,0,0,1,9.2,2.8a6.322,6.322,0,0,1,3.92,1.352L4.152,13.12A6.322,6.322,0,0,1,2.8,9.2Zm6.4,6.4a6.322,6.322,0,0,1-3.92-1.352L14.248,5.28A6.322,6.322,0,0,1,15.6,9.2,6.4,6.4,0,0,1,9.2,15.6Z" transform="translate(-1.2 -1.2)" fill="#475467"/>
      </g>
    </g>
  </g>
</svg>
