<svg xmlns="http://www.w3.org/2000/svg" xmlns:xlink="http://www.w3.org/1999/xlink" width="24" height="24" viewBox="0 0 24 24">
  <defs>
    <clipPath id="clip-path-facebook">
      <rect id="Rectangle_12653" data-name="Rectangle 12653" width="24" height="24" transform="translate(114 332)" fill="#667085" stroke="#707070" stroke-width="1"/>
    </clipPath>
  </defs>
  <g id="Mask_Group_19795" data-name="Mask Group 19795" transform="translate(-114 -332)" clip-path="url(#clip-path-facebook)">
    <g id="facebook" transform="translate(112.605 330.604)">
      <path id="Path_65688" data-name="Path 65688" d="M16.465,25.4H11.442V17.3h-1.06A1.172,1.172,0,0,1,9.209,16.13V14.009a1.172,1.172,0,0,1,1.172-1.172h1.06V10.047A4.188,4.188,0,0,1,15.628,5.86h3.014a1.172,1.172,0,0,1,1.172,1.172V9.712a1.172,1.172,0,0,1-1.172,1.172H16.465v1.953h2.1a1.167,1.167,0,0,1,1.15,1.4l-.424,2.121a1.172,1.172,0,0,1-1.15.938H16.465v8.1Zm-3.349-1.674h1.674V15.628h2.947l.223-1.116H14.8v-4.13a1.172,1.172,0,0,1,1.172-1.172h2.177V7.535H15.628a2.515,2.515,0,0,0-2.512,2.512v4.465H10.884v1.116h2.233Z" fill="#667085" stroke="#fff" stroke-width="0.2"/>
      <path id="Path_65689" data-name="Path 65689" d="M16.744,25.4h-6.7c-6.061,0-8.651-2.59-8.651-8.651v-6.7C1.4,3.985,3.985,1.4,10.047,1.4h6.7c6.061,0,8.651,2.59,8.651,8.651v6.7C25.4,22.806,22.806,25.4,16.744,25.4ZM10.047,3.07C4.9,3.07,3.07,4.9,3.07,10.047v6.7c0,5.146,1.831,6.977,6.977,6.977h6.7c5.146,0,6.977-1.831,6.977-6.977v-6.7c0-5.146-1.831-6.977-6.977-6.977Z" fill="#667085"/>
    </g>
  </g>
</svg>
