<svg xmlns="http://www.w3.org/2000/svg" width="15.972" height="16.552" viewBox="0 0 15.972 16.552">
  <g id="Group_23727" data-name="Group 23727" transform="translate(-8.965 0)">
    <g id="Group_23726" data-name="Group 23726" transform="translate(8.965 0)">
      <path id="Path_66193" data-name="Path 66193" d="M20.486,11.417a.4.4,0,0,0-.4.4V14.57a1.182,1.182,0,0,1-1.181,1.181H10.946A1.182,1.182,0,0,1,9.765,14.57V1.981A1.182,1.182,0,0,1,10.946.8h4.708V3.339A1.847,1.847,0,0,0,17.5,5.184h2.584c0,.02,0,.04,0,.06V6.43a.4.4,0,0,0,.8,0V5.244a1.968,1.968,0,0,0-.58-1.4L17.043.58a1.968,1.968,0,0,0-1.4-.58h-4.7A1.983,1.983,0,0,0,8.965,1.981V14.571a1.983,1.983,0,0,0,1.981,1.981h7.959a1.983,1.983,0,0,0,1.981-1.981V11.817a.4.4,0,0,0-.4-.4Zm-.772-7.033H17.5a1.046,1.046,0,0,1-1.045-1.045V1.125l.023.021Z" transform="translate(-8.965 0)" fill="#667085"/>
      <path id="Path_66194" data-name="Path 66194" d="M196.217,235.1a.4.4,0,0,0-.556.108l-.512.758-.512-.758a.4.4,0,0,0-.663.448l.693,1.025-.693,1.026a.4.4,0,1,0,.663.448l.512-.758.512.758a.4.4,0,1,0,.663-.448l-.693-1.026.693-1.025A.4.4,0,0,0,196.217,235.1Z" transform="translate(-187.927 -227.434)" fill="#667085"/>
      <path id="Path_66195" data-name="Path 66195" d="M427.793,236.682l.693-1.025a.4.4,0,1,0-.663-.448l-.512.758-.512-.758a.4.4,0,0,0-.663.448l.693,1.025-.693,1.025a.4.4,0,1,0,.663.448l.512-.758.512.758a.4.4,0,0,0,.663-.448Z" transform="translate(-412.582 -227.434)" fill="#667085"/>
      <path id="Path_66196" data-name="Path 66196" d="M281,235.036a.4.4,0,0,0-.4.4v2.5a.4.4,0,0,0,.4.4h1.31a.4.4,0,0,0,0-.8H281.4v-2.1A.4.4,0,0,0,281,235.036Z" transform="translate(-271.823 -227.438)" fill="#667085"/>
      <path id="Path_66197" data-name="Path 66197" d="M354.384,236.287h-.211a.225.225,0,1,1,0-.449h.633a.4.4,0,0,0,0-.8h-.689a.4.4,0,0,0-.092.011,1.025,1.025,0,0,0,.147,2.039h.211a.225.225,0,1,1,0,.449h-.836a.4.4,0,1,0,0,.8h.892a.4.4,0,0,0,.092-.01,1.025,1.025,0,0,0-.147-2.039Z" transform="translate(-342.021 -227.44)" fill="#667085"/>
      <path id="Path_66198" data-name="Path 66198" d="M71.933,431.531H69.055a.4.4,0,1,1,0-.8h2.878a.4.4,0,1,1,0,.8Z" transform="translate(-66.725 -416.807)" fill="#667085"/>
      <path id="Path_66199" data-name="Path 66199" d="M71.933,373.912H69.055a.4.4,0,1,1,0-.8h2.878a.4.4,0,1,1,0,.8Z" transform="translate(-66.725 -361.05)" fill="#667085"/>
    </g>
  </g>
</svg>
