<svg id="Group_23484" data-name="Group 23484" xmlns="http://www.w3.org/2000/svg" width="16.01" height="16.01" viewBox="0 0 16.01 16.01">
  <g id="Group_23484-2" data-name="Group 23484">
    <path id="Path_65999" data-name="Path 65999" d="M3.961,98.862v2.063H2.475a.5.5,0,0,0,0,.99H3.961v1.518a.5.5,0,1,0,.99,0v-1.518H6.436a.5.5,0,0,0,0-.99H4.951V98.864a4.745,4.745,0,0,0,.977-.222,5.493,5.493,0,0,1-.773-.792,3.466,3.466,0,1,1-.7-6.86,3.512,3.512,0,0,1,3.466,3.466,3.421,3.421,0,0,1-.4,1.584,2.475,2.475,0,0,0,.784.621,4.4,4.4,0,0,0,.607-2.2,4.456,4.456,0,0,0-8.912,0A4.446,4.446,0,0,0,3.961,98.862Z" transform="translate(0 -87.919)" fill="#667085"/>
    <path id="Path_66000" data-name="Path 66000" d="M161.453,0h-2.971a.5.5,0,0,0,0,.99h1.775l-3.036,2.97a4.29,4.29,0,0,0-4.238-.72,5.494,5.494,0,0,1,.773.792,3.466,3.466,0,1,1,.7,6.86,3.509,3.509,0,0,1-3.466-3.466,3.42,3.42,0,0,1,.4-1.584,2.475,2.475,0,0,0-.784-.621,4.4,4.4,0,0,0-.607,2.2,4.512,4.512,0,0,0,4.456,4.456,4.461,4.461,0,0,0,4.456-4.456,4.411,4.411,0,0,0-.99-2.766l3.036-2.97V3.466a.5.5,0,0,0,.99,0V.5a.5.5,0,0,0-.5-.5Z" transform="translate(-145.939)" fill="#667085"/>
  </g>
</svg>
