<svg xmlns="http://www.w3.org/2000/svg" xmlns:xlink="http://www.w3.org/1999/xlink" width="20" height="20" viewBox="0 0 20 20">
  <defs>
    <clipPath id="clip-path">
      <rect id="Rectangle_11860" data-name="Rectangle 11860" width="20" height="20" fill="#0027ff" stroke="#0076ff" stroke-width="1"/>
    </clipPath>
  </defs>
  <g id="Mask_Group_19645" data-name="Mask Group 19645" clip-path="url(#clip-path)">
    <g id="box" transform="translate(0.363 0.001)">
      <path id="Path_64772" data-name="Path 64772" d="M11.163,12.372a.694.694,0,0,1-.353-.093L2.6,7.526A.7.7,0,1,1,3.3,6.316l7.86,4.549,7.814-4.521a.7.7,0,1,1,.707,1.209l-8.158,4.726a.874.874,0,0,1-.363.093Z" transform="translate(-1.526 -1.163)" fill="#0027ff"/>
      <path id="Path_64773" data-name="Path 64773" d="M11.163,20.8a.7.7,0,0,1-.7-.7V11.665a.7.7,0,0,1,1.4,0V20.1A.7.7,0,0,1,11.163,20.8Z" transform="translate(-1.526 -1.163)" fill="#0027ff"/>
      <path id="Path_64774" data-name="Path 64774" d="M11.163,21.163a4.779,4.779,0,0,1-2.27-.53L3.926,17.87a5.063,5.063,0,0,1-2.4-4.084V8.53a5.077,5.077,0,0,1,2.4-4.084L8.893,1.693a5.123,5.123,0,0,1,4.54,0L18.4,4.456A5.063,5.063,0,0,1,20.8,8.54V13.8a5.077,5.077,0,0,1-2.4,4.084l-4.967,2.753a4.779,4.779,0,0,1-2.27.53Zm0-18.6a3.428,3.428,0,0,0-1.591.353L4.6,5.674A3.739,3.739,0,0,0,2.921,8.54V13.8A3.755,3.755,0,0,0,4.6,16.66l4.967,2.763a3.734,3.734,0,0,0,3.181,0l4.967-2.763A3.739,3.739,0,0,0,19.4,13.8V8.54a3.755,3.755,0,0,0-1.684-2.865L12.753,2.912a3.428,3.428,0,0,0-1.591-.353Z" transform="translate(-1.526 -1.163)" fill="#0027ff"/>
      <path id="Path_64775" data-name="Path 64775" d="M15.815,13.014a.7.7,0,0,1-.7-.7v-3L6.633,4.428a.694.694,0,1,1,.7-1.2l8.828,5.1a.7.7,0,0,1,.353.6v3.4a.7.7,0,0,1-.7.679Z" transform="translate(-1.526 -1.163)" fill="#0027ff"/>
    </g>
  </g>
</svg>
