<svg xmlns="http://www.w3.org/2000/svg" xmlns:xlink="http://www.w3.org/1999/xlink" width="24" height="24" viewBox="0 0 24 24">
  <defs>
    <clipPath id="teset">
      <rect id="Rectangle_12782" data-name="Rectangle 12782" width="24" height="24" transform="translate(-17190 -7540)" fill="#667085" stroke="#707070" stroke-width="1"/>
    </clipPath>
  </defs>
  <g id="Mask_Group_19822" data-name="Mask Group 19822" transform="translate(17190 7540)" clip-path="url(#teset)">
    <g id="test-messenger" transform="translate(-17191.395 -7541.396)">
      <path id="Path_65995" data-name="Path 65995" d="M6.34,25.4a.829.829,0,0,1-.837-.837V20.986A10.8,10.8,0,0,1,1.4,12.569C1.4,6.407,6.776,1.4,13.4,1.4s12,5.012,12,11.174-5.38,11.174-12,11.174a12.768,12.768,0,0,1-3.193-.4L6.753,25.284a.766.766,0,0,1-.413.112ZM13.4,3.07C7.7,3.07,3.07,7.334,3.07,12.569a9.163,9.163,0,0,0,3.784,7.345.825.825,0,0,1,.335.67v2.545l2.5-1.407a.843.843,0,0,1,.636-.078,11.382,11.382,0,0,0,3.07.424c5.693,0,10.326-4.264,10.326-9.5S19.088,3.07,13.4,3.07Z" fill="#667085"/>
      <path id="Path_65996" data-name="Path 65996" d="M8.372,16.186a.857.857,0,0,1-.714-.391.839.839,0,0,1,.067-.982l4.22-5.023a.825.825,0,0,1,1.027-.2l1.619.86L18.2,9.522a.839.839,0,1,1,.848,1.351l-4.2,5.023a.84.84,0,0,1-1.06.19l-1.44-.837-3.8.927c-.045,0-.112.011-.179.011Zm4.119-2.679a.832.832,0,0,1,.424.112l1.116.647,2.076-2.489-1.407.357a.871.871,0,0,1-.6-.067l-1.306-.692L10.649,13.92l1.63-.4c.078,0,.145-.011.212-.011Z" fill="#667085"/>
    </g>
  </g>
</svg>
