<svg xmlns="http://www.w3.org/2000/svg" xmlns:xlink="http://www.w3.org/1999/xlink" width="46" height="46" viewBox="0 0 46 46">
  <defs>
    <clipPath id="clip-path-note">
      <rect id="Rectangle_12777" data-name="Rectangle 12777" width="46" height="46" rx="5" transform="translate(1479 539)" fill="none" stroke="#999" stroke-width="1"/>
    </clipPath>
  </defs>
  <g id="Mask_Group_19819" data-name="Mask Group 19819" transform="translate(-1479 -539)" clip-path="url(#clip-path-note)">
    <g id="note-2" transform="translate(1481.415 542.379)">
      <path id="Path_65987" data-name="Path 65987" d="M24.733,37.321a15.211,15.211,0,0,1-1.583-.077,20.924,20.924,0,0,1-3.32-.56l-3.243-.772C7.69,33.809,4.775,29.1,6.86,20.22l1.892-8.087A20.513,20.513,0,0,1,10.3,7.578C13.616.726,19.966,1.343,24.482,2.4l3.223.753c4.517,1.062,7.373,2.741,8.975,5.308,1.583,2.567,1.834,5.868.772,10.384l-1.892,8.068c-1.66,7.064-5.115,10.4-10.828,10.4ZM19.541,4.644A6.672,6.672,0,0,0,12.9,8.832a19.619,19.619,0,0,0-1.332,3.957L9.678,20.876c-1.718,7.3.27,10.481,7.566,12.218l3.243.772a19.89,19.89,0,0,0,2.915.483c5.25.521,7.856-1.776,9.323-8.087l1.892-8.068c.869-3.725.753-6.331-.405-8.2s-3.436-3.146-7.18-4.015l-3.223-.753a18.5,18.5,0,0,0-4.266-.579Z" transform="translate(3.398 -1.751)" fill="#98a2b3"/>
      <path id="Path_65988" data-name="Path 65988" d="M14.929,38.9c-4.96,0-8.126-2.972-10.153-9.245L2.306,22.027c-2.741-8.493-.29-13.279,8.165-16.02l3.05-.984a20.116,20.116,0,0,1,2.432-.637,1.4,1.4,0,0,1,1.428.54,1.5,1.5,0,0,1,.154,1.525,17.99,17.99,0,0,0-1.313,3.938l-1.892,8.087c-1.718,7.3.27,10.481,7.566,12.218l3.243.772a19.89,19.89,0,0,0,2.915.483,1.485,1.485,0,0,1,1.293,1.081,1.451,1.451,0,0,1-.579,1.563,19.092,19.092,0,0,1-4.9,2.258l-3.05,1A19.857,19.857,0,0,1,14.929,38.9ZM13.868,7.956l-2.49.811c-6.891,2.22-8.531,5.462-6.312,12.372l2.471,7.624c2.239,6.891,5.482,8.551,12.372,6.331l3.05-1c.116-.039.212-.077.328-.116l-2.046-.483c-8.9-2.1-11.813-6.813-9.728-15.692L13.4,9.712c.135-.618.29-1.216.463-1.756Z" transform="translate(-1.235 0.669)" fill="#98a2b3"/>
      <path id="Path_65989" data-name="Path 65989" d="M22.657,13.033a2.637,2.637,0,0,1-.367-.039L12.929,10.62a1.448,1.448,0,0,1,.714-2.8L23,10.2a1.444,1.444,0,1,1-.347,2.837Z" transform="translate(8.717 3.872)" fill="#98a2b3"/>
      <path id="Path_65990" data-name="Path 65990" d="M17.923,15.957a2.637,2.637,0,0,1-.367-.039L11.939,14.49a1.448,1.448,0,0,1,.714-2.8L18.27,13.12a1.447,1.447,0,0,1,1.042,1.756A1.406,1.406,0,0,1,17.923,15.957Z" transform="translate(7.796 7.472)" fill="#98a2b3"/>
    </g>
  </g>
</svg>
