<svg xmlns="http://www.w3.org/2000/svg" xmlns:xlink="http://www.w3.org/1999/xlink" width="42" height="42" viewBox="0 0 42 42">
  <defs>
    <filter id="Rectangle_6815" x="0" y="0" width="42" height="42" filterUnits="userSpaceOnUse">
      <feOffset dy="3" input="SourceAlpha"/>
      <feGaussianBlur stdDeviation="3" result="blur"/>
      <feFlood flood-opacity="0.161"/>
      <feComposite operator="in" in2="blur"/>
      <feComposite in="SourceGraphic"/>
    </filter>
    <clipPath id="clip-path-notify-close">
      <path id="Path_58285" data-name="Path 58285" d="M3843.415-4345l4.293-4.293a1,1,0,0,0,0-1.415,1,1,0,0,0-1.415,0l-4.293,4.294-4.293-4.294a1,1,0,0,0-1.415,0,1,1,0,0,0,0,1.415l4.293,4.293-4.293,4.293a1,1,0,0,0,0,1.415,1,1,0,0,0,.708.292,1,1,0,0,0,.707-.292l4.293-4.294,4.293,4.294a1,1,0,0,0,.707.292,1,1,0,0,0,.708-.292,1,1,0,0,0,0-1.415Z" transform="translate(-3836 4351)" fill="#111213" clip-rule="evenodd"/>
    </clipPath>
    <clipPath id="clip-path-notify-close-2">
      <path id="Path_58284" data-name="Path 58284" d="M2033,2367.5H4913V-4735H2033Z" transform="translate(-2033 4735)" fill="#111213"/>
    </clipPath>
    <clipPath id="clip-path-notify-close-3">
      <rect id="Rectangle_6313" data-name="Rectangle 6313" width="18" height="16.5" fill="#111213"/>
    </clipPath>
    <clipPath id="clip-path-notify-close-4">
      <path id="Path_58283" data-name="Path 58283" d="M3835-4338.5h15V-4352h-15Z" transform="translate(-3835 4352)" fill="#111213"/>
    </clipPath>
  </defs>
  <g id="Group_21470" data-name="Group 21470" transform="translate(9.188 6)">
    <g transform="matrix(1, 0, 0, 1, -9.19, -6)" filter="url(#Rectangle_6815)">
      <rect id="Rectangle_6815-2" data-name="Rectangle 6815" width="24" height="24" rx="12" transform="translate(9 6)" fill="#fff"/>
    </g>
    <g id="Group_18923" data-name="Group 18923" transform="translate(5.757 6)" clip-path="url(#clip-path-notify-close)">
      <g id="Group_18922" data-name="Group 18922" transform="translate(-2704.5 -576)" clip-path="url(#clip-path-notify-close-2)">
        <g id="Group_18921" data-name="Group 18921" transform="translate(2701.5 573)" style="mix-blend-mode: normal;isolation: isolate">
          <g id="Group_18920" data-name="Group 18920" clip-path="url(#clip-path-notify-close-3)">
            <g id="Group_18919" data-name="Group 18919" transform="translate(1.5 1.5)" clip-path="url(#clip-path-notify-close-4)">
              <path id="Path_58282" data-name="Path 58282" d="M3834-4353h18v16.5h-18Z" transform="translate(-3835.5 4351.5)" fill="#111213"/>
            </g>
          </g>
        </g>
      </g>
    </g>
  </g>
</svg>
