<svg xmlns="http://www.w3.org/2000/svg" xmlns:xlink="http://www.w3.org/1999/xlink" width="24" height="24" viewBox="0 0 24 24">
  <defs>
    <clipPath id="clip-path-question">
      <rect id="Rectangle_12676" data-name="Rectangle 12676" width="24" height="24" transform="translate(114 614)" fill="#667085" stroke="#707070" stroke-width="1"/>
    </clipPath>
  </defs>
  <g id="Mask_Group_19812" data-name="Mask Group 19812" transform="translate(-114 -614)" clip-path="url(#clip-path-question)">
    <g id="message-question" transform="translate(112.605 612.599)">
      <path id="Path_65874" data-name="Path 65874" d="M8.93,24.915A1.969,1.969,0,0,1,8,24.681a1.943,1.943,0,0,1-1.027-1.719V21.377A6.019,6.019,0,0,1,1.4,15v-6.7A6.076,6.076,0,0,1,7.814,1.887H18.977A6.076,6.076,0,0,1,25.4,8.305V15a6.076,6.076,0,0,1-6.419,6.419H14.768l-4.755,3.17a1.983,1.983,0,0,1-1.083.324ZM7.814,3.55A4.448,4.448,0,0,0,3.07,8.294v6.7a4.448,4.448,0,0,0,4.744,4.744.843.843,0,0,1,.837.837v2.378a.281.281,0,0,0,.435.234l4.967-3.3a.861.861,0,0,1,.469-.145h4.465a4.448,4.448,0,0,0,4.744-4.744v-6.7A4.448,4.448,0,0,0,18.988,3.55H7.814Z" fill="#667085"/>
      <path id="Path_65875" data-name="Path 65875" d="M13.4,13.518a.843.843,0,0,1-.837-.837v-.234a2.6,2.6,0,0,1,1.306-2.177c.413-.279.547-.469.547-.759a1.016,1.016,0,1,0-2.032,0,.837.837,0,1,1-1.674,0,2.69,2.69,0,0,1,5.38,0A2.561,2.561,0,0,1,14.8,11.654c-.435.29-.569.48-.569.793v.234A.836.836,0,0,1,13.4,13.518Z" fill="#667085"/>
      <path id="Path_65876" data-name="Path 65876" d="M13.4,16.3a.836.836,0,1,1,.835-.837A.836.836,0,0,1,13.4,16.3Z" fill="#667085"/>
    </g>
  </g>
</svg>
