<?xml version="1.0" encoding="utf-8"?>
<svg version="1.1" xmlns:xlink="http://www.w3.org/1999/xlink" width="15px" height="15px" xmlns="http://www.w3.org/2000/svg">
  <g transform="matrix(1 0 0 1 -597 -13 )">
    <path d="M 14.840959821428571 4.978125  C 14.946986607142858 5.096874999999999  15 5.237499999999999  15 5.3999999999999995  C 15 5.562499999999998  14.946986607142858 5.703124999999999  14.840959821428571 5.821875  L 10.555245535714285 10.621875  C 10.44921875 10.740624999999998  10.323660714285715 10.799999999999999  10.178571428571429 10.799999999999999  C 10.033482142857142 10.799999999999999  9.907924107142858 10.740624999999998  9.801897321428571 10.621875  C 9.695870535714288 10.503125  9.642857142857144 10.362499999999999  9.642857142857144 10.2  L 9.642857142857144 7.800000000000001  L 7.767857142857143 7.800000000000001  C 7.220982142857144 7.800000000000001  6.73130580357143 7.81875  6.298828125 7.856249999999999  C 5.866350446428571 7.89375  5.436662946428572 7.9609375  5.009765625 8.057812499999999  C 4.582868303571428 8.1546875  4.21177455357143 8.2875  3.896484375 8.456249999999999  C 3.581194196428572 8.625  3.286830357142857 8.8421875  3.013392857142857 9.1078125  C 2.739955357142857 9.373437499999998  2.5167410714285716 9.6890625  2.34375 10.0546875  C 2.170758928571429 10.4203125  2.0354352678571432 10.853124999999999  1.9377790178571428 11.353124999999999  C 1.8401227678571428 11.853124999999999  1.791294642857143 12.418750000000001  1.791294642857143 13.05  C 1.791294642857143 13.39375  1.805245535714286 13.778125000000001  1.8331473214285714 14.203125  C 1.8331473214285716 14.240625  1.840122767857143 14.314062499999999  1.8540736607142856 14.4234375  C 1.8680245535714286 14.5328125  1.875 14.615625  1.875 14.671875  C 1.875 14.765625  1.8512834821428574 14.843749999999998  1.8038504464285714 14.90625  C 1.756417410714286 14.96875  1.6908482142857144 15  1.607142857142857 15  C 1.5178571428571428 15  1.439732142857143 14.946875  1.372767857142857 14.840625  C 1.3337053571428572 14.784374999999999  1.2974330357142856 14.715625000000001  1.263950892857143 14.634374999999999  C 1.23046875 14.553125  1.1928013392857144 14.459374999999998  1.1509486607142856 14.353125  C 1.109095982142857 14.246875000000001  1.079799107142857 14.171875  1.0630580357142856 14.128125  C 0.3543526785714285 12.346875  0 10.937499999999998  0 9.899999999999999  C 0 8.65625  0.14787946428571425 7.615624999999998  0.44363839285714285 6.778125  C 1.34765625 4.2593749999999995  3.7890624999999996 2.999999999999999  7.767857142857143 2.999999999999999  L 9.642857142857144 2.999999999999999  L 9.642857142857144 0.6000000000000005  C 9.642857142857144 0.43749999999999845  9.695870535714288 0.2968749999999981  9.801897321428571 0.17812499999999953  C 9.907924107142858 0.05937499999999929  10.033482142857142 0  10.178571428571429 0  C 10.323660714285715 0  10.44921875 0.05937499999999929  10.555245535714285 0.17812499999999953  L 14.840959821428571 4.978125  Z " fill-rule="nonzero" fill="##EE0033" stroke="none" transform="matrix(1 0 0 1 597 13 )" />
  </g>
</svg>