<svg xmlns="http://www.w3.org/2000/svg" width="32" height="32" viewBox="0 0 32 32"><title>document upload</title><g fill="#ee0033" class="nc-icon-wrapper"><path d="M12 23.667c-.547 0-1-.454-1-1V17.08l-.96.96c-.387.387-1.027.387-1.414 0s-.387-1.027 0-1.413l2.667-2.667c.28-.28.72-.373 1.093-.213.373.146.613.52.613.92v8c0 .546-.453 1-1 1zm2.666-5.334a.989.989 0 0 1-.707-.293l-2.666-2.667c-.387-.386-.387-1.026 0-1.413s1.026-.387 1.413 0l2.667 2.666a1.006 1.006 0 0 1 0 1.414c-.2.2-.454.293-.707.293zm5.334 12h-8C4.76 30.333 1.667 27.24 1.667 20v-8C1.667 4.76 4.76 1.667 12 1.667h6.667c.546 0 1 .453 1 1s-.454 1-1 1H12c-6.147 0-8.333 2.186-8.333 8.333v8c0 6.147 2.186 8.333 8.333 8.333h8c6.147 0 8.333-2.186 8.333-8.333v-6.667c0-.546.454-1 1-1s1 .454 1 1V20c0 7.24-3.093 10.333-10.333 10.333zm9.333-16H24c-4.56 0-6.333-1.773-6.333-6.333V2.667c0-.4.24-.774.613-.92.373-.16.8-.067 1.093.213L30.04 12.627a1.002 1.002 0 1 1-.707 1.707zM19.667 5.08V8c0 3.44.893 4.333 4.333 4.333h2.92L19.667 5.08z" fill="#ee0033"></path></g></svg>