<svg xmlns="http://www.w3.org/2000/svg" xmlns:xlink="http://www.w3.org/1999/xlink" width="24" height="24" viewBox="0 0 24 24">
  <defs>
    <clipPath id="clip-path-user">
      <rect id="Rectangle_12783" data-name="Rectangle 12783" width="24" height="24" transform="translate(-17170 -8652)" fill="#667085" stroke="#fff" stroke-width="0.3"/>
    </clipPath>
  </defs>
  <g id="Mask_Group_19823" data-name="Mask Group 19823" transform="translate(17170 8652)" clip-path="url(#clip-path-user)">
    <g id="users" transform="translate(-17170 -8649.602)">
      <path id="Path_65997" data-name="Path 65997" d="M20.4,8.4a3,3,0,1,0-3-3A3,3,0,0,0,20.4,8.4Zm0-4.2a1.2,1.2,0,1,1-1.2,1.2A1.2,1.2,0,0,1,20.4,4.2ZM3.6,8.4a3,3,0,1,0-3-3A3,3,0,0,0,3.6,8.4Zm0-4.2A1.2,1.2,0,1,1,2.4,5.4,1.2,1.2,0,0,1,3.6,4.2Zm14.867,7.91a4.275,4.275,0,0,0-4.793-1.564,5.718,5.718,0,0,1-3.353,0,4.27,4.27,0,0,0-4.793,1.564,4.3,4.3,0,0,0-.735,2.412V16.2a1.8,1.8,0,0,0,1.8,1.8H17.4a1.8,1.8,0,0,0,1.8-1.8v-1.68a4.234,4.234,0,0,0-.728-2.412ZM17.4,16.2H6.6v-1.68A2.527,2.527,0,0,1,9.054,12a7.541,7.541,0,0,0,5.9,0,2.525,2.525,0,0,1,2.453,2.52Zm3.451-6.6h-.9a3.139,3.139,0,0,0-1.755.536,5.48,5.48,0,0,1,1.29,1.358,1.367,1.367,0,0,1,.461-.094h.9a1.354,1.354,0,0,1,1.35,1.35.9.9,0,1,0,1.8,0A3.149,3.149,0,0,0,20.853,9.6ZM12,9.6A4.2,4.2,0,1,0,7.8,5.4,4.2,4.2,0,0,0,12,9.6ZM12,3A2.4,2.4,0,1,1,9.6,5.4,2.4,2.4,0,0,1,12,3Zm-6.2,7.137A3.139,3.139,0,0,0,4.051,9.6h-.9A3.155,3.155,0,0,0,0,12.752a.9.9,0,1,0,1.8,0A1.354,1.354,0,0,1,3.15,11.4h.9a1.331,1.331,0,0,1,.461.094A5.565,5.565,0,0,1,5.806,10.138Z" fill="#667085" stroke="#fff" stroke-width="0.3"/>
    </g>
  </g>
</svg>
