<?xml version="1.0" standalone="no"?>
<!DOCTYPE svg PUBLIC "-//W3C//DTD SVG 20010904//EN"
 "http://www.w3.org/TR/2001/REC-SVG-20010904/DTD/svg10.dtd">
<svg version="1.0" xmlns="http://www.w3.org/2000/svg"
 width="230.000000pt" height="107.000000pt" viewBox="0 0 230.000000 107.000000"
 preserveAspectRatio="xMidYMid meet">

<g transform="translate(0.000000,107.000000) scale(0.100000,-0.100000)"
fill="#000000" stroke="none">
<path d="M105 1037 c-26 -14 -48 -37 -63 -67 -22 -45 -23 -46 -20 -447 3 -390
4 -402 24 -430 11 -15 36 -38 54 -51 l33 -22 1014 0 c1123 0 1059 -4 1107 66
l26 39 0 411 c0 410 0 411 -22 444 -13 18 -36 43 -51 54 -28 21 -31 21 -1045
23 l-1017 3 -40 -23z m477 -214 c9 -10 28 -47 43 -83 15 -36 31 -69 35 -74 5
-5 41 11 84 38 58 36 84 47 108 44 27 -2 34 -8 36 -30 3 -25 -113 -328 -144
-375 -14 -22 -19 -23 -198 -23 -162 0 -185 2 -198 18 -26 28 -148 341 -148
377 0 60 34 57 144 -11 39 -24 73 -44 77 -44 3 0 21 34 39 76 19 42 40 82 48
90 19 19 56 17 74 -3z m646 -161 c13 -42 35 -115 49 -161 l26 -84 22 74 c13
41 35 113 49 162 l27 87 60 0 c32 0 59 -3 59 -7 0 -4 -33 -103 -72 -220 l-73
-213 -71 0 c-59 0 -73 3 -79 18 -4 9 -38 108 -75 220 l-69 202 62 0 62 0 23
-78z m452 -142 l0 -220 -55 0 -55 0 0 220 0 220 55 0 55 0 0 -220z m355 190
c78 -73 72 -192 -11 -246 -16 -11 -55 -20 -98 -23 l-71 -6 -3 -67 -3 -68 -54
0 -55 0 0 221 0 221 134 -4 c127 -3 136 -4 161 -28z m-1290 -440 c4 -6 1 -17
-5 -25 -10 -12 -47 -15 -194 -15 -99 0 -187 4 -195 9 -8 5 -11 16 -8 25 6 14
32 16 201 16 125 0 197 -4 201 -10z"/>
<path d="M1855 648 c-4 -9 -5 -40 -3 -69 l3 -54 44 1 c105 2 108 117 4 131
-32 4 -44 2 -48 -9z"/>
</g>
</svg>
