<svg xmlns="http://www.w3.org/2000/svg" xmlns:xlink="http://www.w3.org/1999/xlink" width="19" height="19" viewBox="0 0 19 19">
  <defs>
    <clipPath id="clip-path-vuesax-linear-headphone">
      <rect id="Rectangle_5542" data-name="Rectangle 5542" width="19" height="19" transform="translate(0.474)" fill="#667085"/>
    </clipPath>
  </defs>
  <g id="Mask_Group_631" data-name="Mask Group 631" transform="translate(-0.474)" clip-path="url(#clip-path-vuesax-linear-headphone)">
    <g id="headset_mic" data-name="headset mic" transform="translate(1.799 0)">
      <g id="Layer_2" data-name="Layer 2">
        <g id="Layer_1" data-name="Layer 1">
          <g id="headset_mic-2" data-name="headset mic">
            <path id="Path_47413" data-name="Path 47413" d="M15.44,12.518a.8.8,0,0,1-.8-.8V8.122a6.52,6.52,0,1,0-13.037,0v3.595a.8.8,0,0,1-1.6,0V8.122a8.121,8.121,0,1,1,16.242,0l0,3.595A.8.8,0,0,1,15.44,12.518Z" transform="translate(0 0)" fill="#667085" stroke="#fff" stroke-width="0.5"/>
            <path id="Path_47414" data-name="Path 47414" d="M2.488,17.289H2.367A2.367,2.367,0,0,1,0,14.921v-2.3a.658.658,0,0,1,.658-.658H2.5a1.946,1.946,0,0,1,1.944,1.944v1.434a1.946,1.946,0,0,1-1.954,1.944ZM1.315,13.283v1.633a1.052,1.052,0,0,0,1.052,1.052h.116a.631.631,0,0,0,.629-.629V13.911a.631.631,0,0,0-.629-.629Z" transform="translate(0 -2.542)" fill="#667085" stroke="#fff" stroke-width="0.5"/>
            <path id="Path_47415" data-name="Path 47415" d="M15.826,17.288H15.71a1.944,1.944,0,0,1-1.941-1.944V13.911a1.946,1.946,0,0,1,1.941-1.944h1.841a.658.658,0,0,1,.658.658v2.291a2.367,2.367,0,0,1-2.383,2.372Zm-.116-4.006a.629.629,0,0,0-.626.629v1.433a.629.629,0,0,0,.626.629h.116a1.052,1.052,0,0,0,1.052-1.052V13.282Z" transform="translate(-1.956 -2.542)" fill="#667085" stroke="#fff" stroke-width="0.5"/>
            <path id="Path_47416" data-name="Path 47416" d="M16.532,21.235H15.9a.69.69,0,1,1,0-1.379h.637a.965.965,0,0,0,.965-.965V16.1a.69.69,0,1,1,1.379,0V18.89A2.348,2.348,0,0,1,16.532,21.235Z" transform="translate(-2.636 -3.907)" fill="#667085" stroke="#fff" stroke-width="0.5"/>
          </g>
        </g>
      </g>
    </g>
  </g>
</svg>
