<svg xmlns="http://www.w3.org/2000/svg" width="18" height="18" viewBox="0 0 18 18">
  <g id="vuesax_linear_call" data-name="vuesax/linear/call" transform="translate(18 18) rotate(180)">
    <g id="vuesax_linear_call-2" data-name="vuesax/linear/call" transform="translate(0 18)">
      <g id="call">
        <g id="call-2" data-name="call">
          <path id="Vector" d="M14.977-12.247a1.909,1.909,0,0,0-.187-.818,3.1,3.1,0,0,0-.51-.765,3.381,3.381,0,0,0-1.23-.885A3.766,3.766,0,0,0,11.588-15a6.25,6.25,0,0,0-2.445.547,13.173,13.173,0,0,0-2.58,1.485,21.563,21.563,0,0,0-2.46,2.1A21.31,21.31,0,0,0,2.01-8.415,13.371,13.371,0,0,0,.54-5.858,6.317,6.317,0,0,0,0-3.4,3.88,3.88,0,0,0,.27-1.958,3.452,3.452,0,0,0,1.132-.705,2.2,2.2,0,0,0,2.693,0,1.409,1.409,0,0,0,3.3-.135a1.223,1.223,0,0,0,.5-.42l1.74-2.453a2.567,2.567,0,0,0,.3-.525,1.185,1.185,0,0,0,.105-.458,1.018,1.018,0,0,0-.158-.532,2.551,2.551,0,0,0-.42-.532L4.8-5.648a.4.4,0,0,1-.12-.3A.681.681,0,0,1,4.7-6.12c.023-.06.045-.105.06-.15a6.224,6.224,0,0,1,.7-.96c.338-.39.7-.787,1.088-1.185s.8-.765,1.192-1.1a5.756,5.756,0,0,1,.968-.69c.038-.015.083-.038.135-.06a.518.518,0,0,1,.188-.03.413.413,0,0,1,.307.127l.57.563a2.3,2.3,0,0,0,.54.42,1,1,0,0,0,.532.158,1.2,1.2,0,0,0,.458-.1,2.9,2.9,0,0,0,.525-.292l2.482-1.762a1.138,1.138,0,0,0,.412-.48A1.539,1.539,0,0,0,14.977-12.247Z" transform="translate(1.5 -1.5)" fill="none" stroke="#667085" stroke-width="1"/>
        </g>
        <g id="Vector-2" data-name="Vector" fill="none" opacity="0">
          <path d="M0,0H18V-18H0Z" stroke="none"/>
          <path d="M 17 -1 L 17 -17 L 1 -17 L 1 -1 L 17 -1 M 18 0 L 0 0 L 0 -18 L 18 -18 L 18 0 Z" stroke="none" fill="#667085"/>
        </g>
      </g>
    </g>
  </g>
</svg>
