<svg xmlns="http://www.w3.org/2000/svg" xmlns:xlink="http://www.w3.org/1999/xlink" width="20" height="20" viewBox="0 0 20 20">
  <defs>
    <clipPath id="clip-path">
      <rect id="Rectangle_11862" data-name="Rectangle 11862" width="20" height="20" fill="#e03" stroke="#e03" stroke-width="1"/>
    </clipPath>
  </defs>
  <g id="Mask_Group_19647" data-name="Mask Group 19647" clip-path="url(#clip-path)">
    <g id="wallet-add-1" transform="translate(0.218 0.001)">
      <path id="Path_64782" data-name="Path 64782" d="M13.488,15.061H8.837a.7.7,0,1,1,0-1.4h4.651a.7.7,0,1,1,0,1.4Z" transform="translate(-1.386 -1.163)" fill="#e03"/>
      <path id="Path_64783" data-name="Path 64783" d="M11.163,17.442a.7.7,0,0,1-.7-.7V12.093a.7.7,0,0,1,1.4,0v4.651A.7.7,0,0,1,11.163,17.442Z" transform="translate(-1.386 -1.163)" fill="#e03"/>
      <path id="Path_64784" data-name="Path 64784" d="M4.837,9.73a.731.731,0,0,1-.493-.2A.7.7,0,0,1,4.2,8.763l1.73-4.13a2.006,2.006,0,0,1,.084-.186C7.386,1.274,9.144.5,12.251,1.693a.685.685,0,0,1,.391.381.7.7,0,0,1,0,.549L9.916,8.949a.705.705,0,0,1-.642.419H6.623a3.842,3.842,0,0,0-1.516.307A.667.667,0,0,1,4.837,9.73ZM9.87,2.558c-1.153,0-1.86.753-2.6,2.465-.009.028-.028.056-.037.084L6.019,8c.2-.019.4-.028.6-.028H8.809l2.242-5.209a3.9,3.9,0,0,0-1.181-.2Z" transform="translate(-1.386 -1.163)" fill="#e03"/>
      <path id="Path_64785" data-name="Path 64785" d="M17.014,9.554a.775.775,0,0,1-.2-.028,3.948,3.948,0,0,0-1.116-.158H9.274a.712.712,0,0,1-.586-.316.722.722,0,0,1-.056-.66l2.7-6.261a.769.769,0,0,1,.893-.447c.112.037.214.084.326.13l2.2.921a6.732,6.732,0,0,1,2.7,1.758,2.971,2.971,0,0,1,.288.409,2.49,2.49,0,0,1,.26.549,1.806,1.806,0,0,1,.1.316,5.168,5.168,0,0,1-.428,3.358A.712.712,0,0,1,17.014,9.554ZM10.335,7.972H15.7a5.455,5.455,0,0,1,.874.074,3.314,3.314,0,0,0,.167-1.935c-.019-.084-.037-.121-.047-.158a1.659,1.659,0,0,0-.14-.307,1.967,1.967,0,0,0-.186-.27,5.448,5.448,0,0,0-2.158-1.358l-1.842-.772L10.335,7.972Z" transform="translate(-1.386 -1.163)" fill="#e03"/>
      <path id="Path_64786" data-name="Path 64786" d="M14.791,21.163H7.535a6.391,6.391,0,0,1-.744-.047c-3.265-.223-5.126-2.084-5.349-5.386a5.409,5.409,0,0,1-.047-.707V13.209A5.22,5.22,0,0,1,6.633,7.972h9.079a5.067,5.067,0,0,1,1.516.223,5.279,5.279,0,0,1,3.721,5.014v1.814c0,.2-.009.4-.019.586-.2,3.637-2.326,5.554-6.14,5.554ZM6.623,9.367a3.828,3.828,0,0,0-3.842,3.842v1.814c0,.2.019.391.037.577C3,18.251,4.3,19.554,6.912,19.73a5.044,5.044,0,0,0,.614.047h7.256c3.07,0,4.577-1.349,4.726-4.233.009-.167.019-.335.019-.521V13.209A3.884,3.884,0,0,0,16.8,9.526a3.948,3.948,0,0,0-1.116-.158Z" transform="translate(-1.386 -1.163)" fill="#e03"/>
      <path id="Path_64787" data-name="Path 64787" d="M2.084,13.907a.7.7,0,0,1-.7-.7V10.484a6.13,6.13,0,0,1,4.94-6.019A.725.725,0,0,1,7,4.707a.7.7,0,0,1,.1.707L5.479,9.3a.744.744,0,0,1-.363.372,3.853,3.853,0,0,0-2.326,3.535A.711.711,0,0,1,2.084,13.907ZM5.209,6.344A4.75,4.75,0,0,0,2.884,9.554,5.078,5.078,0,0,1,4.307,8.521l.9-2.177Z" transform="translate(-1.386 -1.163)" fill="#e03"/>
      <path id="Path_64788" data-name="Path 64788" d="M20.242,13.907a.7.7,0,0,1-.7-.7,3.884,3.884,0,0,0-2.726-3.684.692.692,0,0,1-.447-.921,3.939,3.939,0,0,0,.372-2.493c-.019-.084-.037-.121-.047-.158a.7.7,0,0,1,.158-.791.691.691,0,0,1,.8-.112,6.111,6.111,0,0,1,3.284,5.433v2.726a.7.7,0,0,1-.7.7ZM17.907,8.456a5.1,5.1,0,0,1,1.544,1.107A4.661,4.661,0,0,0,18.2,7.172a6.9,6.9,0,0,1-.288,1.284Z" transform="translate(-1.386 -1.163)" fill="#e03"/>
    </g>
  </g>
</svg>
