<svg xmlns="http://www.w3.org/2000/svg" width="24.407" height="24.501" viewBox="0 0 24.407 24.501">
  <g id="Group_23439" data-name="Group 23439" transform="translate(0.147 0.25)">
    <g id="Group_23438" data-name="Group 23438" transform="translate(0.056)">
      <path id="Path_65976" data-name="Path 65976" d="M7.5,11.2,5.955,14.684a.256.256,0,0,1-.238.142h-.79a.255.255,0,0,1-.237-.142L3.957,13.02c-.071-.164-.136-.321-.2-.477-.068.172-.137.331-.207.485l-.772,1.662a.257.257,0,0,1-.236.138h-.79a.256.256,0,0,1-.24-.146L.071,11.192a.2.2,0,0,1,.032-.2.266.266,0,0,1,.209-.1H1.2a.254.254,0,0,1,.244.156l.634,1.772c.053.15.1.291.147.426q.083-.2.18-.427l.781-1.783a.257.257,0,0,1,.237-.143h.734a.258.258,0,0,1,.239.145l.74,1.745c.067.157.126.3.181.442.045-.131.1-.273.159-.429l.683-1.752a.255.255,0,0,1,.241-.151h.859a.269.269,0,0,1,.21.1A.2.2,0,0,1,7.5,11.2Zm8.272,0-1.543,3.488a.256.256,0,0,1-.237.142H13.2a.256.256,0,0,1-.237-.142l-.731-1.664c-.072-.164-.137-.321-.2-.477-.068.172-.137.331-.207.485l-.772,1.662a.256.256,0,0,1-.236.138h-.791a.257.257,0,0,1-.24-.146L8.341,11.192a.2.2,0,0,1,.032-.2.27.27,0,0,1,.209-.1H9.47a.254.254,0,0,1,.244.156l.633,1.772c.053.15.1.291.149.426q.082-.2.178-.427l.782-1.783a.255.255,0,0,1,.237-.143h.734a.257.257,0,0,1,.239.145l.741,1.745c.066.157.125.3.179.442.047-.131.1-.273.159-.429l.683-1.752a.256.256,0,0,1,.242-.151h.859a.265.265,0,0,1,.21.1A.2.2,0,0,1,15.77,11.2Zm8.271,0L22.5,14.684a.257.257,0,0,1-.238.142h-.791a.255.255,0,0,1-.237-.142L20.5,13.02c-.072-.164-.137-.321-.2-.477-.068.172-.138.331-.208.485l-.772,1.662a.257.257,0,0,1-.236.138H18.3a.257.257,0,0,1-.241-.146l-1.444-3.488a.2.2,0,0,1,.031-.2.268.268,0,0,1,.21-.1h.89a.252.252,0,0,1,.243.156l.634,1.772c.053.15.1.291.148.426q.082-.2.178-.427l.782-1.783a.257.257,0,0,1,.238-.143H20.7a.257.257,0,0,1,.239.145l.74,1.745c.067.157.127.3.182.442.045-.131.1-.273.159-.429l.684-1.752a.253.253,0,0,1,.241-.151H23.8a.266.266,0,0,1,.21.1A.206.206,0,0,1,24.04,11.2Z" transform="translate(-0.056 -0.838)" fill="#667085" stroke="#fff" stroke-linecap="round" stroke-linejoin="round" stroke-width="0.4"/>
      <g id="Group_23437" data-name="Group 23437" transform="translate(0.491)">
        <path id="Path_65977" data-name="Path 65977" d="M2.556,8.308a10.179,10.179,0,0,1,.98-1.88.9.9,0,0,0,.172.034H5.451A17.174,17.174,0,0,0,5,8.308H6.9a14.779,14.779,0,0,1,.521-1.846h9.26A14.779,14.779,0,0,1,17.2,8.308H19.11a17.174,17.174,0,0,0-.454-1.846H20.4a.92.92,0,0,0,.172-.034,10.289,10.289,0,0,1,.979,1.88h1.967a12.064,12.064,0,0,0-22.929,0ZM19.032,4.616h-1.1a11.561,11.561,0,0,0-.789-1.4A10.217,10.217,0,0,1,19.032,4.616ZM12.053,1.846c1.438,0,2.766,1.065,3.767,2.769H8.286C9.287,2.911,10.615,1.846,12.053,1.846ZM6.963,3.213a11.683,11.683,0,0,0-.788,1.4h-1.1A10.266,10.266,0,0,1,6.963,3.213Z" transform="translate(-0.588)" fill="#667085" stroke="#fff" stroke-linecap="round" stroke-linejoin="round" stroke-width="0.5"/>
        <path id="Path_65978" data-name="Path 65978" d="M21.55,17a10.236,10.236,0,0,1-.98,1.88.9.9,0,0,0-.172-.034H18.654A17.174,17.174,0,0,0,19.109,17H17.541a1.222,1.222,0,0,0-.254.137,1.113,1.113,0,0,0-.145.185l-.46,1.524H7.423A14.734,14.734,0,0,1,6.9,17H5a17.174,17.174,0,0,0,.454,1.846H3.707a.9.9,0,0,0-.172.034A10.236,10.236,0,0,1,2.556,17H.588a12.064,12.064,0,0,0,22.929,0ZM5.074,20.692h1.1a11.612,11.612,0,0,0,.788,1.4A10.241,10.241,0,0,1,5.074,20.692Zm6.979,2.769c-1.438,0-2.766-1.065-3.767-2.769h7.532C14.819,22.4,13.491,23.462,12.053,23.462Zm5.089-1.367a11.491,11.491,0,0,0,.789-1.4h1.1A10.279,10.279,0,0,1,17.142,22.095Z" transform="translate(-0.588 -1.307)" fill="#667085" stroke="#fff" stroke-linecap="round" stroke-linejoin="round" stroke-width="0.5"/>
      </g>
    </g>
  </g>
</svg>
