<svg xmlns="http://www.w3.org/2000/svg" width="24" height="22.649" viewBox="0 0 24 22.649">
  <path id="Path_63849" data-name="Path 63849" d="M14.737,25.634a5.238,5.238,0,0,1-3.714-8.946l3.06-3.048a.925.925,0,0,1,1.308,1.308L12.331,18a3.394,3.394,0,1,0,4.8,4.8l4.8-4.8A7.713,7.713,0,0,0,11.023,7.088L5.791,12.32a6.464,6.464,0,0,0,0,9.156.925.925,0,0,1-1.308,1.308,8.311,8.311,0,0,1,0-11.772L9.715,5.78A9.563,9.563,0,1,1,23.239,19.3l-4.8,4.8A5.2,5.2,0,0,1,14.737,25.634Z" transform="translate(-2.04 -2.985)" fill="#667085"/>
</svg>
