<svg xmlns="http://www.w3.org/2000/svg" width="24.3" height="24.3" viewBox="0 0 24.3 24.3">
  <g id="flip-2" transform="translate(0.15 0.15)">
    <g id="flip-2-2" data-name="flip-2">
      <g id="flip-2-3" data-name="flip-2">
        <rect id="Rectangle_6559" data-name="Rectangle 6559" width="24" height="24" transform="translate(24 24) rotate(180)" fill="#667085" stroke="#fff" stroke-width="0.3" opacity="0"/>
        <path id="Path_48656" data-name="Path 48656" d="M6.2,18.326H18.566l-1.34,1.166a.831.831,0,0,0,0,1.283,1.14,1.14,0,0,0,1.463,0l3.092-2.711a.828.828,0,0,0,0-1.283L18.69,14.07a1.135,1.135,0,0,0-1.463,0,.828.828,0,0,0,0,1.283l1.34,1.166H6.2a1.528,1.528,0,0,1-1.639-1.383V12.9A.973.973,0,0,0,3.531,12a.973.973,0,0,0-1.031.9v2.232a3.475,3.475,0,0,0,3.7,3.19Z" transform="translate(-0.241 1.255)" fill="#667085" stroke="#fff" stroke-width="0.3"/>
        <path id="Path_48657" data-name="Path 48657" d="M5.891,8.967a1.14,1.14,0,0,0,1.463,0,.831.831,0,0,0,0-1.283L6.014,6.518H18.381A1.528,1.528,0,0,1,20.02,7.9v2.232a1.039,1.039,0,0,0,2.061,0V7.9a3.475,3.475,0,0,0-3.7-3.19H6.014l1.34-1.166a.828.828,0,0,0,0-1.283,1.135,1.135,0,0,0-1.463,0L2.8,4.973a.828.828,0,0,0,0,1.283Z" transform="translate(-0.24 -0.192)" fill="#667085" stroke="#fff" stroke-width="0.3"/>
      </g>
    </g>
  </g>
</svg>
