<svg id="Group_19736" data-name="Group 19736" xmlns="http://www.w3.org/2000/svg" width="24" height="24.067" viewBox="0 0 24 24.067">
  <path id="Path_63852" data-name="Path 63852" d="M85.25,25.317a2.529,2.529,0,0,1-2.009-1.072l-1.674-2.233a.527.527,0,0,0-.223-.112h-.558c-4.655,0-7.535-1.261-7.535-7.535V8.785c0-4.934,2.6-7.535,7.535-7.535h8.93c4.934,0,7.535,2.6,7.535,7.535v5.581c0,4.934-2.6,7.535-7.535,7.535h-.558a.291.291,0,0,0-.223.112l-1.674,2.233A2.529,2.529,0,0,1,85.25,25.317ZM80.785,2.924c-4,0-5.86,1.864-5.86,5.86v5.581c0,5.046,1.73,5.86,5.86,5.86h.558a2.094,2.094,0,0,1,1.563.781l1.674,2.233a.775.775,0,0,0,1.34,0l1.674-2.233a1.956,1.956,0,0,1,1.563-.781h.558c4,0,5.86-1.864,5.86-5.86V8.785c0-4-1.864-5.86-5.86-5.86Z" transform="translate(-73.25 -1.25)" fill="#667085"/>
  <path id="Path_63853" data-name="Path 63853" d="M84,12a1,1,0,1,1,1-1A1,1,0,0,1,84,12Z" transform="translate(-72 -0.129)" fill="#667085"/>
  <path id="Path_63854" data-name="Path 63854" d="M88,12a1,1,0,1,1,1-1A1,1,0,0,1,88,12Z" transform="translate(-71.487 -0.129)" fill="#667085"/>
  <path id="Path_63855" data-name="Path 63855" d="M80,12a1,1,0,1,1,1-1A1,1,0,0,1,80,12Z" transform="translate(-72.513 -0.129)" fill="#667085"/>
</svg>
