<svg xmlns="http://www.w3.org/2000/svg" xmlns:xlink="http://www.w3.org/1999/xlink" width="24" height="24" viewBox="0 0 24 24">
  <defs>
    <clipPath id="clip-path">
      <rect id="Rectangle_12971" data-name="Rectangle 12971" width="15" height="15" transform="translate(-10399 12504)" fill="#fff" stroke="#fff" stroke-width="1"/>
    </clipPath>
  </defs>
  <g id="Group_23791" data-name="Group 23791" transform="translate(-426 -173)">
    <circle id="_420ab8c8f1fe7159425550ce2cfa727b" data-name="420ab8c8f1fe7159425550ce2cfa727b" cx="12" cy="12" r="12" transform="translate(426 173)" fill="#0987e3"/>
    <g id="Mask_Group_19870" data-name="Mask Group 19870" transform="translate(10830 -12326)" clip-path="url(#clip-path)">
      <g id="comments" transform="translate(-10397.594 12505.406)">
        <path id="Path_66258" data-name="Path 66258" d="M8.344.625h-6.5A1.219,1.219,0,0,0,.625,1.844V5.906A1.219,1.219,0,0,0,1.844,7.125H3.063V9.563L5.5,7.125H8.344A1.219,1.219,0,0,0,9.563,5.906V1.844A1.219,1.219,0,0,0,8.344.625Z" transform="translate(-0.625 -0.625)" fill="none" stroke="#fff" stroke-linecap="round" stroke-linejoin="round" stroke-width="1.25"/>
        <path id="Path_66259" data-name="Path 66259" d="M8.125,12.125h2.438L13,14.563V12.125h1.219a1.219,1.219,0,0,0,1.219-1.219V6.844a1.219,1.219,0,0,0-1.219-1.219h-.406" transform="translate(-3.25 -2.375)" fill="none" stroke="#fff" stroke-linecap="round" stroke-linejoin="round" stroke-width="1.25"/>
      </g>
    </g>
  </g>
</svg>
