<svg id="Group_19737" data-name="Group 19737" xmlns="http://www.w3.org/2000/svg" width="24" height="24" viewBox="0 0 24 24">
  <path id="Path_63850" data-name="Path 63850" d="M49.22,25.25a12,12,0,1,1,12-12A12.017,12.017,0,0,1,49.22,25.25Zm0-22.326A10.326,10.326,0,1,0,59.546,13.25,10.338,10.338,0,0,0,49.22,2.924Z" transform="translate(-37.22 -1.25)" fill="#667085"/>
  <path id="Path_63851" data-name="Path 63851" d="M49.25,19.25a8.714,8.714,0,0,1-6.62-2.82.662.662,0,0,1,.233-1.04,1.044,1.044,0,0,1,1.275.19,7.084,7.084,0,0,0,10.224,0,1.061,1.061,0,0,1,1.275-.19.669.669,0,0,1,.233,1.04A8.714,8.714,0,0,1,49.25,19.25Z" transform="translate(-37.22 0.75)" fill="#667085"/>
  <circle id="Ellipse_274" data-name="Ellipse 274" cx="1" cy="1" r="1" transform="translate(6.521 11)" fill="#667085"/>
  <circle id="Ellipse_275" data-name="Ellipse 275" cx="1" cy="1" r="1" transform="translate(15.547 11)" fill="#667085"/>
</svg>
